<?xml version="1.0" encoding="utf-8"?>
<!-- Generator: Adobe Illustrator 17.1.0, SVG Export Plug-In . SVG Version: 6.00 Build 0)  -->
<!DOCTYPE svg PUBLIC "-//W3C//DTD SVG 1.1//EN" "http://www.w3.org/Graphics/SVG/1.1/DTD/svg11.dtd">
<svg version="1.1" id="Layer_1" xmlns="http://www.w3.org/2000/svg" xmlns:xlink="http://www.w3.org/1999/xlink" x="0px" y="0px"
	 viewBox="0 0 539.1 547.2" enable-background="new 0 0 539.1 547.2" xml:space="preserve">
<g id="wsuh6h_2_">
	<g>
		<path fill="#FCF6F1" d="M267.6,28.8c2.9,0.1,5.9,0.4,8.8,0.4c5.5-0.1,11.1-0.4,16.6,0.5c0.5,0.1,1,0.1,1.5,0
			c3.4-0.7,6.7,0.2,10,0.6c4.5,0.5,8.9,1.3,13.3,2.1c1.5,0.3,2.9,0.6,4.4,1c4.2,1.1,8.4,2.4,12.7,3.3c5,1,9.7,3.1,14.3,5
			c3,1.2,6.1,2.1,9.2,2.8c1.8,0.4,3.5,1.2,5.3,1.8c0.5,0.2,0.9,0.4,1.4,0.6c2,0.9,4,1.6,5.9,2.6c3.1,1.5,6.1,3.1,9.1,4.7
			c3.2,1.7,6.4,3.4,9.6,5.1c2.1,1.1,4.3,2.2,6.5,3.4c1.7,1,3.2,2.1,4.9,3.2c3.1,2,6.1,3.9,9.2,6c1.2,0.8,2.4,1.8,3.5,2.8
			c2.1,1.8,4.2,3.6,6.3,5.5c0.9,0.8,1.6,1.7,2.4,2.4c6.4,5.5,12.6,11.2,18.5,17.3c1.4,1.5,3.3,2.5,4.8,3.9c1.9,1.7,3.7,3.4,5.3,5.3
			c2,2.2,3.8,4.5,5.6,6.8c1.5,2.1,2.7,4.4,4.2,6.4c3,4.2,6.1,8.3,9.1,12.5c2.2,3.2,4.7,6.1,6.3,9.7c1.4,3,3.4,5.8,5,8.7
			c2.2,4.1,4.2,8.3,6.5,12.3c2.5,4.4,4,9.2,6.1,13.7c1.1,2.3,1.9,4.8,2.8,7.2c0.8,2.4,1.5,4.8,2.3,7.1c0.4,1.3,0.8,2.6,1.4,3.8
			c2,3.9,2.9,8.1,4,12.2c0.6,2.3,1.2,4.6,1.7,6.9c1,5.6,1.9,11.3,2.8,17c0.1,0.4,0,0.8,0,1.5c-7.3-1.7-13-5.5-17.7-10.7
			c1-1.9,2.1-3.6,3-5.5c0.5-1,0.6-2.2,0.8-3.3c0.3-1.8,0.5-3.7,0.9-5.5c0.4-1.7,1.4-3,3.1-3.7c0.7-0.3,1.4-0.6,1.9-1.1
			c0.3-0.3,0.6-1.1,0.5-1.4c-0.2-0.4-0.9-0.6-1.4-0.6c-0.8,0.1-1.5,0.4-2.3,0.7c-1.7,0.8-3.2,0.4-4.8-0.3c-1.1-0.5-2.2-1.1-3.2-1.7
			c-3.4-1.9-6.8-3.8-10.1-5.8c-0.2-0.1-0.4-0.3-0.7-0.6c0.9-3.5,2.4-6.6,3.9-9.8c0.6-1.2,1-2.4,1.6-3.5c0.6-1.2,1.1-2.4,2.4-3.2
			c1.5-0.9,2.2-3.7,1.5-5.4c-0.5-1.4-1-1.8-2.4-1.4c-3.5,1-6.7,0.2-9.9-1c-1.8-0.7-3.6-1.4-5.4-2.1c0.3-1.3,0.6-2.3,0.8-3.3
			c0.4-2.7,0.3-5.4-0.3-8.1c-0.3-1.6-0.4-3.3-0.5-4.9c-0.1-1.9,0.5-3.7,1.9-5.1c0.6-0.5,1.1-1.2,0.4-1.8c-0.4-0.4-1.4-0.5-1.9-0.3
			c-4.9,2.2-9.5,0.9-14.1-1c-1.6-0.7-3.3-1-5-0.9c-1,0-2,0-3.3,0c-0.1-0.8-0.2-1.6-0.2-2.3c0.2-2.3,0.3-4.6,0.6-6.8
			c0.2-1.4,0.6-2.8,1.2-4.1c0.4-0.9,1.3-1.7,2.1-2.4c1-0.9,2.2-1.6,3.1-2.6c1.1-1,0.9-3.1-0.3-4c-0.3-0.3-1-0.4-1.4-0.2
			c-1.1,0.5-2.3,1.1-3.3,2c-0.9,0.7-1.8,1.3-2.9,1.2c-2.9-0.1-5.9-0.2-8.8-0.6c-2.3-0.3-4.5-1.2-6.7-1.9c0.5-2.1,1-4,1.3-5.9
			c0.4-2.9-0.2-5.7-0.9-8.5c-0.4-1.6-0.8-3.2-1.1-4.8c-0.4-1.9-0.4-3.7,0.7-5.4c0.5-0.8,1.2-1.9,0.2-2.7c-1.1-0.8-1.8,0.1-2.5,0.9
			c-0.7,0.8-1.7,0.7-2.6,0.6c-2.1-0.3-4.3-0.6-6.4-0.9c-3-0.6-6-0.6-8.8,0.9c-0.6,0.3-1.3,0.5-2.1,0.7c-0.7-2.1-1-4.1-0.9-6.2
			c0.1-1.4,0.9-2.2,1.9-3c1.1-0.8,1.5-1.9,1.2-3.2c-0.4-1.5-1.5-2.1-2.9-1.5c-0.6,0.3-1.4,0.7-1.7,1.2c-1.5,2.6-4.1,3.2-6.7,3.3
			c-4.7,0.3-9.5,0.7-14.2-0.2c-2.8-0.5-5.6,0.5-8.3,1.1c-7.1,1.6-11.9,6.1-15.3,12.3c-0.1,0.2-0.2,0.4-0.3,0.6
			c-1.2,1.5-2.5,3.1-3.9,4.8c0,0-0.3-0.1-0.5-0.2c-4-2.1-8-4.3-12.1-6.2c-5.4-2.5-10.8-5.1-16.6-6.5c-3.1-0.8-6.2-1.9-9.3-2.8
			c-2.2-0.6-4.5-1-6.7-1.5c-2.5-0.5-5-0.9-7.4-1.6c-3.7-1.2-7.5-1.9-11.4-2c-3.7-0.1-7.3-0.8-10.9-1.3c-2.4-0.3-4.9-0.4-7.3-0.4
			c-3.2,0-6.5,0.1-9.7,0.2c-1.9,0.1-3.9,0.2-5.8,0.3c-0.5,0-1,0.1-1.5,0c-3.9-0.8-7.7,0.2-11.6,0.4c-2.3,0.1-4.6,0.1-6.9,0.3
			c-1.6,0.1-3.1,0.6-4.7,0.8c-5.8,1-11.3,2.7-16.9,4.2c-1.5,0.4-3.1,0.5-4.7,0.9c-4.3,1.2-8.6,2.4-12.8,3.7
			c-0.5,0.2-1.1,0.4-1.6,0.7c-3.4,1.9-6.8,3.7-10.2,5.6c-0.6,0.3-1.1,0.7-1.7,0.9c-2.4,1-4.8,2-6.5,4.1c-0.3,0.3-0.7,0.5-1.1,0.7
			c-1.8-1.7-3.2-3.6-4.3-5.7c-0.5-0.9-1.1-1.7-1.8-2.4c-1.3-1.6-2.7-3.2-4-4.8c-2.1-2.5-4.9-3.9-7.8-5.2c-2.6-1.1-5.2-2.1-7.8-3.1
			c-2.1-0.7-4.2-1.6-6.4-1.9c-2.5-0.3-5.2-0.1-7.7,0.2c-2.6,0.3-5,1.1-7.6,1.6c-2.7,0.5-5.3,0.2-7.8-1.1c-1.3-0.7-2.7-1.4-4.1-2
			c-0.2-0.1-0.4-0.2-0.6-0.2c-1.5-0.5-2.5-0.4-2.9,0.4c-0.6,0.9-0.2,2.4,0.9,3.3c1.1,0.9,2.2,1.9,3.3,2.7c0.7,0.5,1,1.2,1,2
			c-0.3,3.5-0.2,7-1.7,10.3c-0.2,0.5-0.5,1-0.7,1.4c-1.8-0.6-3.4-1.2-5.1-1.7c-2.4-0.7-4.8-0.6-7.1,0.5c-1.6,0.8-3.3,0.1-5,0.5
			c-0.3,0.1-0.7-0.5-1-0.7c-0.8-0.4-1.7-0.7-2.5-1c-1,2.1-1,2.1,0.4,3.2c0.8,0.6,0.8,1.4,0.7,2.1c-0.2,1.2-0.6,2.3-1.1,3.5
			c-1.1,2.7-1.6,5.5-0.8,8.4c0.3,1.1,1,2.2,1.6,3.3c0.6,1.1,1.4,2.2,2.2,3.5c-0.7,0.2-1.3,0.5-2,0.8c-3.4,1.1-6.8,2.2-10.3,3.2
			c-2.8,0.8-5.6,1.1-8.5,0.4c-1.6-0.4-3.4-0.7-4.9,0.8c-1.2,1.3-1.3,2.7,0,3.7c3,2.3,4.1,5.7,4.6,9.2c0.5,3.6,0.9,7.2,1.3,10.9
			c-0.3,0-0.8,0.1-1.2,0.1c-3.2,0.1-6.3,0.6-9.3,1.8c-2.7,1.1-5.4,1.7-8-0.9c-0.6,0.7-1,1.3-1.5,1.9c0.4,0.4,0.6,0.7,0.9,0.9
			c1.8,1.4,2.4,3.3,2.4,5.5c-0.1,2.4-0.2,4.9-0.3,7.3c-0.2,3.3,1.1,5.9,3.7,7.9c0.2,0.2,0.5,0.3,1.1,0.6c-1.6,1.1-2.8,2.1-4.1,2.7
			c-2.5,1.1-5.1,2.1-7.7,2.8c-2.6,0.8-5.4,0.9-8.1,0.1c-1.4-0.4-1.9-0.1-2.7,1.3c-0.3,0.6-0.9,1.1-1.3,1.7c-1.3,1.5-1.1,2.9,0.5,4
			c0.1,0.1,0.2,0.2,0.4,0.2c5.6,2.3,6.7,7.6,8.5,12.6c-0.8,0.7-1.4,1.2-2,1.8c-1.6,1.4-3.2,2.7-4.7,4.2c-1.8,1.8-3.8,3-6.5,2.9
			c-0.3,0-0.7,0.1-1.1,0.2c-0.3,0.7-0.6,1.3-0.9,1.9c0.2,0.2,0.2,0.5,0.4,0.6c3.9,1.7,5.9,4.8,6.8,8.8c0.6,2.6,2.2,4.7,4.3,6.3
			c0.9,0.7,1.9,1.3,3.1,2c-1.2,1-2.3,2-3.5,2.9c-3.8,2.9-7.5,5.9-12.2,7.2c-1.7,0.5-3.5,0.8-5.3,1.1c-1.4,0.3-2,0.8-2.1,1.8
			c0,1.2,0.7,2.3,1.7,2.8c3,1.3,6.1,2.5,9.1,3.9c1.7,0.8,3.2,1.9,4.2,3.6c1.2,1.8,2.6,3.4,3.9,5.1c0.3,0.4,0.5,0.8,0.7,1.3
			c-1.2,0.7-2.3,1.2-3.3,1.8c-2.3,1.5-4.1,3.5-5.5,5.9c-1,1.7-2.7,2.5-4.3,3.4c-0.6,0.3-1.4,0.2-2.1,0.3c-0.8,1-1.8,2.1-0.9,3.8
			c3.6,1.2,5.7,4,7.4,7.4c1.2,2.4,3.2,4.2,5.9,5.1c0.9,0.3,1.8,0.7,2.6,1.1c4.2,2.1,3.7,1.5,7.4,1.5c-0.1,0.3-0.1,0.7-0.2,1
			c-1.9,4.1-3.8,8.2-5.8,12.3c-2.4,4.9-6.5,7.5-11.9,8.3c-2,0.3-3,1.4-3.2,3.4c-0.2,1.4,0.4,2.3,1.8,2.7c0.9,0.2,1.8,0.3,2.8,0.3
			c2.8-0.1,5.6-0.5,8.4-0.3c2.9,0.2,5.5,1.7,7.7,3.6c0.8,0.7,1.6,1.5,2.5,2.3c-0.7,0.7-1.3,1.4-2,2.1c-2,1.9-3.4,4.2-4,7
			c-0.4,1.9-0.7,3.8-1.3,5.7c-0.5,1.5-1.2,2.9-2.1,4.2c-0.5,0.7-1.6,1.1-2.5,1.5c-0.4,0.2-0.9,0.1-1.2,0.4c-0.3,0.3-0.6,0.9-0.5,1.3
			c0,0.3,0.5,0.6,0.9,0.8c0.2,0.1,0.4,0.1,0.6,0.1c2.5-0.3,4.6,0.8,6.7,1.9c2.7,1.4,5.4,2.8,8.1,4.1c2,1,4.1,1.6,6.4,1.5
			c0.6,1.1,0,2.1-0.2,3.2c-0.6,3.7-1.1,7.4-1.8,11.1c-0.7,3.5-2,6.6-5.2,8.6c-1,0.6-1.3,2-0.9,3.2c0.3,1,1.3,1.6,2.6,1.5
			c0.9-0.1,1.9,0,2.5-0.9c0.3-0.3,0.7-0.6,1.1-0.7c3.6-1.1,7.1-2.4,10.9-1.5c1.1,0.2,2.3,0.4,3.6,0.6c-1.2,3.6-1.1,7.2-1.3,10.8
			c-0.1,1.9-0.8,3.8-2,5.4c-0.5,0.6-1.2,1-1.8,1.4c-0.6,0.4-1.3,0.6-1.9,1.1c-0.3,0.3-0.5,0.9-0.4,1.3c0.1,0.4,0.7,0.8,1.1,0.8
			c0.5,0.1,1.1-0.1,1.7-0.3c2-0.7,3.9-0.8,5.8,0.5c3.2,2.2,6.8,3.2,10.5,3.5c1.6,0.1,3.1,0,4.9,0c0.1,0.9,0.2,2,0.3,3
			c0.1,2.7,0.4,5.3,0.1,8c-0.3,3.1-1.1,6.1-1.8,9.1c-0.1,0.5-0.7,1-1.2,1.4c-0.6,0.5-1.3,0.8-2,1.3c-1.2,1-1.3,2.5-0.3,3.7
			c0.3,0.4,0.6,0.8,1,1.1c1.8,1.2,2.3,1.2,3.7-0.3c1.5-1.7,3.3-3.2,5.4-4.1c1.5-0.7,3-1.3,5-2.2c-0.3,1.2-0.4,1.9-0.5,2.5
			c-0.4,1.3-0.8,2.6-1.1,3.9c-0.5,2.4-0.3,4.8,0.9,7.1c0.3,0.6,0.3,1.3,0.4,2c0.1,0.6,0.1,1.2,0.2,2c-1,1.3-2.8,2-3.4,3.8
			c0.3,0.9,1,0.9,1.6,0.6c1-0.5,2-1.1,2.9-1.8c0.7-0.6,1.4-0.9,2.3-0.9c2.6-0.1,5.1,0.3,7.6,1.2c3.2,1.1,6.5,1.9,10.1,1.5
			c0.5,1.4,1,2.7,1.3,4c0.5,2.1,1.3,3.9,2.5,5.7c1.4,2.2,2.9,4.3,4.3,6.4c0.7,1.1,1.4,2.4,1.8,3.6c0.4,1.1,0.6,2.2-0.5,3.2
			c-0.4,0.4-0.6,1.1-0.8,1.7c-0.3,1-0.2,2.1,0.7,2.5c1,0.5,2.3,0.7,3.5,0.8c0.3,0,0.8-0.8,1-1.2c0.7-2.8,2.9-4.5,5.1-5.9
			c1.7-1.1,3.9-1.4,5.9-2c1.3-0.4,2.6-0.8,4-1c6.1-1.1,12-2.9,17.9-4.6c6.7-2,10.5-6.7,11.7-13.5c0.5-2.7,1.1-5.3,2.4-8
			c1.5,0.8,2.9,1.7,4.3,2.3c2.8,1.2,5.6,2.2,8.4,3.3c2.3,0.9,4.6,1.7,6.8,2.6c0.1,0,0.1,0.1,0.2,0.1c5.2,1.4,10.4,2.8,15.6,4.2
			c1.5,0.4,2.9,0.9,4.3,1.2c2.4,0.6,4.9,1.3,7.3,1.7c3.8,0.5,7.6,1.3,11.6,1.3c1,0,2,0.3,3,0.5c3.3,0.8,6.6,1,10,0.6
			c3.3-0.3,6.6,0.1,9.9-0.1c4.9-0.3,9.7-0.2,14.6-1.3c3.4-0.7,7-1,10.5-1.3c2.4-0.2,4.7-0.5,7-1.2c1.8-0.6,3.8-0.9,5.7-1.2
			c4-0.6,7.7-2.1,11.6-3.3c5.4-1.6,10.9-3.3,15.9-6c4-2.1,7.9-4.5,11.8-6.7c1-0.6,2-1.1,3.1-1.7c0.3,0.4,0.5,0.7,0.6,1
			c0.9,2.3,1.9,4.7,3.5,6.6c0.3,0.4,0.6,0.8,0.7,1.3c1.5,4.1,4.6,7,7.4,10.2c1.7,1.9,3.6,3.5,5.8,4.8c1.3,0.8,2.8,1.2,4.2,1.6
			c3.9,1,8,0.9,12,1.2c3.2,0.2,6.5-0.6,9.7,0.3c1.4,0.4,2.8,0.8,4.1,1.3c1.1,0.4,1.9,1.2,2.5,2.3c1.5,2.4,3.3,2.5,5.2,0.4
			c0.8-0.8,0.5-1.6,0.2-2.4c-0.9-2.7-1-5.4-0.5-8.1c0.3-1.5,0.7-3.1,1.2-4.8c1.4,0,2.8,0,4.3,0c2.2,0.1,4.3-0.2,6.3-1.1
			c1.6-0.7,3.1-0.8,4.8-0.3c1.1,0.4,2.3,0.4,3-1c-0.5-1.2-1-2.3-1.4-3.5c-0.4-1.2-0.4-2.4-0.2-3.7c0.7-3.6,1-7.2,0.1-10.8
			c-0.3-1.2-1-2.3-1.6-3.6c0.7,0,1.5-0.2,2.3-0.1c3.1,0.1,6.2,0.2,9.3,0.3c2.8,0.1,5.3,1,7.3,3.3c0.4,0.5,1.2,1,1.8,1
			c1.3,0.1,2.1,0.8,2.9,1.9c-0.6,0.6-1.1,1.2-1.7,1.9c-2.5,2.6-5,5.2-7.5,7.7c-0.3,0.3-0.6,0.7-0.9,0.9c-3.7,2.8-6.5,6.4-9.7,9.7
			c-0.3,0.3-0.6,0.6-0.9,0.9c-4.1,3.2-8.1,6.3-12.2,9.5c-2.7,2.1-5.4,4.3-8,6.5c-4,3.3-8.5,5.8-12.9,8.5c-1.8,1.1-3.6,2.3-5.5,3.4
			c-2.5,1.4-5,2.8-7.5,4.2c-0.5,0.3-1.1,0.5-1.5,0.8c-2.2,1.8-4.9,2.7-7.4,3.9c-6,2.9-12.2,5.2-17.9,8.8c-3.9,2.4-8.3,4.1-13,4.9
			c-4.4,0.7-8.8,1.3-12.9,3c-1.6,0.7-3.5,0.7-5.2,1.2c-3.9,1.3-8,2-12,3.3c-2.8,0.9-5.6,1.1-8.4,1.8c-1.4,0.3-2.8,0.3-4.2,0.3
			c-3.2-0.2-6.3,0.3-9.4,0.7c-2.6,0.3-5.3,0.1-7.9,0.2c-1.2,0-2.4,0.3-3.6,0.2c-3.7,0-7.4-0.2-11.1-0.2c-2.9,0-5.8,0.1-8.7-0.1
			c-3.7-0.2-7.4-0.6-11.1-0.9c-2.6-0.2-5.3-0.2-7.9-0.4c-1.8-0.2-3.6-0.7-5.4-1c-1.6-0.3-3.2-0.8-4.8-0.9
			c-5.5-0.7-10.9-2.4-16.4-3.2c-3.5-0.5-6.7-1.6-10.1-2.5c-3.6-1-7.3-1.6-10.9-2.4c-1-0.2-2-0.7-3.1-1c-1.6-0.5-3.3-0.9-4.9-1.4
			c-1.3-0.4-2.6-0.7-3.9-1.2c-1.1-0.4-2-1.1-3.1-1.5c-2.6-0.9-5.1-1.9-7.5-3.3c-1.4-0.8-3.1-1-4.7-1.6c-1.8-0.7-3.6-1.6-5.4-2.5
			c-2.4-1.2-4.7-2.4-7.1-3.5c-4.1-1.9-7.6-4.5-11.1-7.3c-1.4-1.1-2.9-2.1-4.4-3.1c-2.6-1.9-5.3-3.6-7.8-5.6
			c-1.1-0.8-1.8-2.1-2.9-3.1c-2.2-2-4.5-4-6.8-5.9c-5-4.3-10-8.6-15.1-12.9c-1.2-1-2.5-1.9-3.8-2.8c-3.5-2.5-6-5.9-8.9-9
			c-3.8-4-7.3-8.3-10.8-12.5c-1-1.2-1.5-2.7-2.4-4.1c-0.6-0.9-1-2-1.8-2.6c-2.4-1.9-3.7-4.5-5.4-6.9c-0.6-0.9-1.2-1.8-1.8-2.7
			c-2-3-3.9-6.2-6.1-9.1c-1.2-1.5-1.6-3.3-2.5-4.9c-1.7-3-3.3-6-5-9c-0.6-1.1-1.3-2.2-1.7-3.4c-0.6-2.1-2-3.8-2.8-5.8
			c-1.8-4.7-5.2-8.5-6.7-13.4c-1-3.5-2.1-7-3.2-10.4c-0.4-1.1-1-2.2-1.6-3.3c-0.7-1.2-1.2-2.4-1.3-3.8c0-0.4-0.2-0.9-0.5-1.2
			c-0.6-0.6-0.7-1.3-0.7-2.1c0-0.8-0.6-1.5-0.8-2.3c-0.3-0.9-0.7-1.8-0.7-2.7c0.2-1.9-0.6-3.4-1.1-5.1c-0.8-3.1-1.6-6.2-2.3-9.4
			c-0.5-2.2-0.9-4.5-1.3-6.7c-0.1-0.3-0.3-0.6-0.5-0.9c-0.1-0.3-0.4-0.7-0.3-0.9c1.3-2.7-0.1-5.1-0.8-7.5c-0.3-0.9-0.7-2.1-0.4-2.9
			c0.3-0.8,0.3-1.5,0.2-2.2c-0.6-4.3-1.4-8.6-1.9-12.9c-0.2-1.8-0.2-3.7-0.3-5.6c-0.1-1.6-0.2-3.3-0.5-4.9c-0.1-0.8-0.9-1.4-0.4-2.3
			c-0.2-0.1-0.5-0.1-0.7-0.2c0-0.1,0-0.3,0-0.4c0.3,0,0.7,0,0.7-0.1c0.1-0.8,0.2-1.5,0.2-2.3c-0.2-3.3-0.4-6.7,0.4-10
			c0.5-1.9,0.6-4,0.6-5.9c0-2.8,0.9-5.5,0.2-8.3c-0.4-1.5-0.2-3.2,0.2-4.7c0.2-0.9,0.3-1.7,0.4-2.6c0.1-2.6,0.6-5.2,0.9-7.9
			c0.1-1,0.4-2.2,0.1-3.2c-0.2-0.9,0-1.5,0.5-1.9c0.9-0.7,0.9-1.7,1-2.7c0.2-2.4,0.3-4.9,1-7.2c1.3-4.2,2.4-8.4,3.9-12.5
			c1.8-4.8,3.1-9.8,4.5-14.7c0.6-2.2,1.2-4.4,1.8-6.6c0.5-1.7,0.8-3.3,1.5-4.9c1.6-4,3.2-8,4.9-11.9c1.5-3.4,3.6-6.5,4.6-10.1
			c0.3-0.9,0.9-1.6,1.4-2.4c0.8-1.4,1.7-2.7,2.2-4.2c1.1-3.7,2.9-7,4.7-10.4c0.3-0.6,0.8-1.2,1.2-1.8c1.8-2.6,3.6-5.2,5.4-7.8
			c0.8-1.2,1.5-2.6,2.5-3.8c2.9-3.6,6-7.1,9-10.7c1.7-2.1,3.5-4.1,5.2-6.2c1.6-2,3.1-4.1,4.8-6.1c4.3-4.9,8.7-9.7,13.5-14.2
			c4.9-4.5,10-8.9,15.6-12.5c2.9-1.9,6-3.6,8.7-5.8c1.4-1.2,3.4-1.8,4.9-3c1.7-1.3,3.6-2.3,5.4-3.3c0.7-0.4,1.3-1,2-1.6
			c1.5-1.2,3-2.3,4.6-3.4c1.1-0.8,2.2-1.6,3.3-2.4c1.6-1.1,3.1-2.3,4.8-3.3c1-0.6,2.2-0.9,3.3-1.5c1.8-0.9,3.5-2,5.2-2.9
			c1.8-0.9,3.6-1.7,5.4-2.7c1.9-1,3.7-2.1,5.9-2.6c5.1-1.3,10.3-2.4,15-5.1c0.3-0.2,0.7-0.1,1.1-0.2c1.4-0.2,2.7-0.3,4-0.6
			c1.4-0.3,3.1-0.3,4.1-1.1c3.3-2.5,7.6-2.2,11-4.3c0.2-0.1,0.4,0,0.6-0.1c1.8-0.3,3.5-0.6,5.3-0.9c2.7-0.5,5.3-1.6,8.2-1.7
			c2.4,0,4.7-0.5,7-1.1c1.6-0.4,3.2-0.6,4.9-0.8c3-0.3,6-0.6,9-0.9c2.3-0.2,4.6-0.6,6.8-0.2c3.9,0.7,7.5-0.2,11.3-0.7
			C263,28.8,265.3,28.8,267.6,28.8z M243.9,61.1c-0.2,0-0.4,0-0.6,0.1c-0.6-1-1.2-2-1.9-3c-1-1.7-2.2-3.3-3.1-5.1
			c-1.6-3.2-2.5-6.7-4.9-9.6c-0.2,0-0.5-0.1-0.8,0c-1.2,0.3-2.4,0.6-3.6,1c-1,0.3-1.3,1.6-1.1,2.1c0.9,2,0.3,4,0.4,5.9
			c0.3,3.6,0.6,7.1,0.9,10.7c0.2,2.6,0.2,5.2,0.4,7.9c1.7,0,3.3,0.1,4.8-0.1c0.4,0,0.9-1,0.9-1.5c-0.2-3-0.5-6-0.7-9
			c-0.1-1.3-0.2-2.6-0.2-3.9c0.9,0.8,1.6,1.7,2.1,2.6c1.5,3,3,6,4.4,9.1c0.6,1.2,1.3,1.8,2.6,1.7c0.7,0,1.4-0.1,2.2,0
			c1.8,0.2,2.1,0,2.4-1.8c0.6-3.7,2.5-6.9,3.3-10.5c0-0.2,0.3-0.3,0.6-0.7c1.2,4,1.8,7.8,2.1,11.9c1.4,0,2.7,0.1,3.9,0
			c1.5-0.1,2-0.9,1.5-2.4c-0.2-0.5-0.5-1-0.5-1.6c-0.4-2.9-0.9-5.7-1.2-8.6c-0.3-3.8-0.3-7.6-0.6-11.4c-0.1-1.1,1-2.6-0.6-3.3
			c-1.1-0.4-2.4-0.4-3.5-0.3c-2.3,0.1-3,0.7-3.6,2.8c-1.1,3.8-2.1,7.6-3.3,11.4C245.4,57.4,244.6,59.2,243.9,61.1z M214.5,489.8
			c-0.7-2.7-1.4-5.3-2.1-7.9c-0.3-1.2-0.6-2.3-0.9-3.5c-0.4-1.5-0.3-1.7,1.2-2.1c2.8-0.7,4.8-2.4,5.9-4.9c0.9-1.9,1.7-4,1.1-6.2
			c-1-3.9-3.9-5.9-7.6-7c-1.6-0.5-3.1-1-4.7-1.2c-2-0.2-4-0.9-5.9-0.3c-0.4,1.6-0.6,3.1-1.2,4.3c-1.8,3.6-2.2,7.7-3.7,11.4
			c-1.4,3.6-2.3,7.3-3.6,11c-0.3,1-0.4,1.8,0.5,2.5c1.7-0.7,2.6,1,4.3,1.3c0.3-0.5,0.7-1,0.9-1.5c0.6-2.1,1-4.3,1.6-6.4
			c0.4-1.3,1-2.5,1.5-3.8c0.7,0.2,1.3,0.5,2,0.6c1.4,0.1,1.9,1.1,2.1,2.3c0.4,2.7,0.8,5.4,1.2,8c0.1,0.7,0.5,1.4,0.8,2.1
			c0.7,1.6,2.4,1.3,3.7,1.8C212.9,490.8,213.7,490.7,214.5,489.8z M351.7,57.7c-0.5,1.1-1,2-1.4,3c-0.3,0.6-0.4,1.2-0.6,1.8
			c-2.6,6.2-5.1,12.3-7.7,18.4c-0.4,1-0.2,1.6,0.7,1.8c1.2,0.3,2.4,0.4,3.7,0.6c2-5.1,3.9-10,5.9-15.1c1.3,1.5,2,2.9,2.2,4.5
			c0.1,0.7,0.2,1.4,0.4,2.1c0.4,2.1,1,4.2,1.4,6.3c0.3,1.6,0.3,3.3,0.6,4.9c0.2,1.1,0.7,2.1,0.2,3.3c-0.1,0.3,0.2,1.1,0.6,1.3
			c1.3,0.7,2.7,1.3,4.1,1.9c0.8,0.3,1.4-0.1,1.7-0.9c0.3-0.8,0.5-1.7,0.9-2.5c1.1-2.6,2.1-5.3,3.3-7.9c1.4-3.1,3-6.2,4.2-9.3
			c0.7-1.7,1.9-3.3,1.3-5.3c-1.2-0.4-2.4-0.7-3.4-1.2c-1-0.5-1.6-0.2-2,0.8c-1.7,4.1-3.4,8.3-5.2,12.4c-0.1,0.4-0.4,0.7-0.9,1.4
			c-0.9-3.7-1.6-7-2.4-10.3c-0.8-3.3-1.5-6.7-2.3-10.2C355.3,59,353.7,58.4,351.7,57.7z M258.9,467c-0.3,0.6-0.6,1-0.7,1.5
			c-0.6,4.1-1.3,8.2-1.8,12.3c-0.5,4.7-0.9,9.4-1.2,14.1c0,0.6,0.3,1.3,0.3,1.5c1.5,0.3,2.5,0.4,3.5,0.7c1.4,0.4,2.7-0.2,2.9-1.4
			c0.3-1.9,0.5-3.8,0.8-5.7c0.1-0.7,0.5-1.4,0.8-2.5c0.9,1,1.4,1.6,2,2.2c1.4,1.6,2.7,3.1,4.1,4.7c0.7,0.7,1.6,1.3,2.1,2.1
			c0.7,1.3,1.7,1.4,2.9,1.1c1.1-0.3,2.2-0.6,3.5-1c-0.2-0.5-0.4-1-0.6-1.5c-1.1-2.1-2.5-3.9-3.9-5.8c-0.3-0.4-0.3-1.1-0.6-1.3
			c-1.7-1.5-2.4-3.7-3.9-5.3c-0.8-0.8-0.7-1.6,0.2-2.4c1.1-1,2.1-2.1,3.1-3.3c2-2.5,4-5,5.9-7.5c0.3-0.4,0.5-1.2,0.5-1.7
			c-0.1-0.9-1-1-1.7-0.9c-1.1,0.1-2.2,0.4-3.4,0.6c-0.9,0.1-1.5,0.7-2,1.5c-0.5,0.9-1,2-1.8,2.7c-2,1.6-3.2,3.6-4.6,5.6
			c-0.5,0.7-0.9,1.6-2,1.9c-0.1-0.5-0.2-0.8-0.1-1.2c0.2-2.6,0.3-5.1,0.6-7.7c0.2-2-0.3-2.9-2.3-3.1
			C260.7,466.9,259.9,467,258.9,467z M270.5,41.5c-1.1,2.3-1.3,4.6-1.2,6.9c0.1,3.6,0.1,7.2-0.2,10.9c-0.3,2.8-0.4,5.7-0.5,8.6
			c-0.1,1.6,0.4,2.1,1.9,2.2c1.6,0.2,3.3,0.2,4.9,0.4c2.1,0.2,4.3,0.4,6.4,0.7c3.6,0.6,4.3,0,4.1-3.7c0-0.1,0-0.1,0-0.2
			c-0.1-2.3-0.1-2.3-2.4-2.4c-0.8,0-1.6,0-2.4-0.1c-2.2-0.1-4.4-0.2-6.4-0.4c-0.5-2.2-0.7-4,0.2-5.6c2.4,0,4.8-0.1,7.1,0
			c1.4,0,1.8-0.2,1.9-1.5c0.1-1.2,0.1-2.4,0.1-3.6c0-0.4-0.3-1.2-0.6-1.3c-1.1-0.3-2.3-0.8-3.3-0.6c-1.7,0.5-3.2,0.2-5.1-0.3
			c0.1-1.4,0.2-2.8,0.4-4.5c3.8,0.1,7.4,0.6,11.2-0.2c0-1.4,0.1-2.8-0.1-4.1c-0.1-0.5-0.7-1.2-1.2-1.3c-1.9-0.6-3.8-0.7-5.7-0.2
			c-1.6,0.4-3.2,0.7-4.9,0.3C273.6,41.3,272.1,41.5,270.5,41.5z M187.6,61.8c-0.5-1.3-0.7-2.1-1-2.9c-0.6-1.4-1.1-1.7-2.7-1.4
			c-0.6,0.1-1.3,0.1-1.9,0.2c-1.5,0.3-3.1,0.5-4.5,1.2c-5.4,2.5-9.4,6.2-9.9,12.7c-0.3,3.5,0.2,6.9,2.4,9.7c1.5,2,3.1,4,5.5,5
			c3.2,1.4,6.6,1.1,9.9,0.4c3.5-0.8,6.5-2.5,9.4-4.6c1.6-1.1,1.6-1.4,0.7-3.2c-1.5-3.2-3.1-6.4-4.2-9.8c-0.5,0.2-1.1,0.3-1.6,0.6
			c-2.8,1.5-3.3,1.9-1.7,5c0.6,1.3,0.9,2.7,1.4,4c0.3,0.7,0.1,1.2-0.5,1.5c-1.5,0.8-2.9,1.7-4.8,1.8c-2.6,0.2-4.9-0.8-7.2-1.7
			c-0.9-0.4-1.7-1.1-2.2-1.9c-1.3-2.3-1.8-4.8-1.9-7.4c0-1.5,0.5-2.7,1.5-3.9c1.4-1.6,3.1-2.8,4.8-3.9c1.9-1.1,3.9-1.6,6.2-1.1
			C186.1,62.1,186.8,61.8,187.6,61.8z M247.6,495.4c-3-10.1-3.8-20.3-6.1-30.1c-2.2-0.8-4.4-0.9-6.3,0c-4.3,8.8-9.6,16.6-13.8,25.2
			c1.2,1.4,2.9,1.2,4.4,1.8c0.6-1,1.1-1.8,1.6-2.7c0.7-1,1.3-2,2-3c0.6-0.8,1.3-1,2.3-0.9c2.2,0.3,4.4,0.6,6.6,0.9
			c1.1,0.1,1.8,0.5,2,1.8c0.3,1.9,0.9,3.7,1.3,5.6c0.2,0.8,0.7,1.5,1.6,1.5C244.6,495.5,245.8,495.4,247.6,495.4z M316.8,464
			c-2,10.3-4,20.4-6.1,30.8c1.2-0.2,2.1-0.5,3-0.5c2-0.1,2.4-0.5,2.6-2.5c0.1-1.3,0.2-2.5,0.3-3.8c0-0.8,0.4-1.4,1.2-1.5
			c3.1-0.7,6.3-1.4,9.4-2c0.5-0.1,1.2,0.2,1.6,0.6c0.5,0.5,0.8,1.2,1.1,1.8c0.7,1.2,1.4,2.4,2.1,3.7c1.7-0.8,4.1,0.3,4.8-1.8
			c-0.8-1.2-1.3-2.1-1.8-2.9c-0.8-1.1-2-2.1-2.4-3.3c-1.1-3.5-3.7-6.2-5-9.7c-1-2.5-2.6-4.8-4-7.2c-0.9-1.6-2.1-2.7-4.1-2.2
			C318.6,463.8,317.7,463.9,316.8,464z M201.6,78.8c4,0.6,5.4-0.6,5.1-4.3c-0.1-0.9-0.1-1.7-0.1-2.6c0-2,0.4-2.4,2.3-2.7
			c1.3-0.2,2.6-0.5,3.8-0.9c3.1-1.2,3.3-0.8,5,2.1c0.1,0.2,0.2,0.4,0.3,0.6c1.4,2.6,1.5,2.7,4.3,1.8c0.3-0.1,0.5-0.2,0.8-0.3
			c1.2-0.5,1.6-1.5,1-2.5c-0.8-1.2-1.7-2.3-2.5-3.5c-1.8-2.4-3.7-4.8-5.4-7.2c-1-1.3-1.8-2.8-2.6-4.2c-0.8-1.4-2.5-2.2-2.7-4
			c0-0.1-0.3-0.3-0.5-0.4c-0.6-0.4-1.2-0.8-1.8-1.1c-0.4-0.2-0.9-0.2-1.3-0.2c-0.8,0.1-1.7,0.3-2.5,0.4c-0.8,0.1-1.1,0.5-1.3,1.2
			c-0.1,0.5-0.3,1-0.3,1.5c-0.6,5.2-1.2,10.4-1,15.7c0.1,3.1,0,6.2-0.7,9.2C201.5,77.8,201.6,78.3,201.6,78.8z M283.2,468.1
			c-0.3,1.4,0.6,2.4,1.3,3.5c2.4,3.9,5.4,7.5,7.6,11.7c0.9,1.7,0.9,3.4,0.9,5.1c0,2.8-0.2,5.5-0.3,8.5c0.8,0,1.3,0.1,1.8,0.1
			c1.1,0,2.3-0.2,3.4-0.1c1.6,0.1,2.2-0.5,2.1-2.1c-0.2-2.4-0.4-4.8-0.5-7.2c-0.1-1.9-0.1-3.9-0.1-5.8c0-0.5,0.1-1,0.3-1.5
			c1.3-2.5,2.7-4.9,4-7.4c1-1.9,1.8-3.8,2.6-5.8c0.5-1.2,0-1.7-1.3-1.6c-0.7,0.1-1.4,0.3-2.1,0.3c-2.3,0-2.3,0-3.1,2.1
			c-0.9,2.4-1.9,4.9-2.9,7.3c-0.3,0.6-0.8,1.1-1.3,1.8c-0.7-1.1-1.3-1.8-1.7-2.6c-1.2-2.3-2.4-4.6-3.8-6.8c-0.6-0.9-1.4-1.2-2.6-0.9
			C286.2,467.2,284.8,467.6,283.2,468.1z M335.9,76.6c-0.1-1.2-0.1-2.2-0.2-3.1c-0.3-3.2,0-6.4-1.3-9.4c-0.2-0.4-0.1-0.8-0.1-1.3
			c0-3.1,0.1-6.3,0.1-9.4c0-1.4-0.5-1.9-2-2.1c-0.4-0.1-0.8-0.3-1.2-0.4c-1.7-0.8-2.3-0.8-3.4,0.9c-3.4,5.4-7.2,10.5-10.9,15.7
			c-1,1.5-2.1,2.9-3.2,4.3c-1.1,1.4-1,1.9,0.7,2.7c0.1,0.1,0.3,0.1,0.4,0.2c1.8,0.8,2.2,0.7,3.3-1c0.8-1.3,1.7-2.5,2.5-3.8
			c0.6-1,1.3-1.4,2.5-1c1.7,0.6,3.4,1.2,5.1,1.5c1.4,0.3,2.4,0.8,2.4,2.4c0,0.6,0.1,1.1,0.1,1.7c0,1.3-0.1,2.6,0.1,3.8
			c0.1,0.6,0.7,1.2,1.2,1.6c0.5,0.4,1.1,0.6,1.7,0.8c1.1,0.4,1.6-0.1,1.3-1.2C334.7,78.3,334.9,77.3,335.9,76.6z M331.1,460.6
			c0.5,1.5,0.8,2.7,1.2,3.8c0.1,0.3,0.7,0.6,1.1,0.7c0.4,0,0.8-0.3,1.2-0.4c1.9-0.6,3.7-1.5,5.8-1.4c0.7,1.8,1.2,3.7,2,5.4
			c1.4,3.1,2.4,6.3,3,9.6c0.1,0.3,0.1,0.7,0.3,1c0.9,2,1.9,4,1.8,6.3c-0.1,0.7,0.4,1.4,1.1,1.2c1.9-0.5,4.1-0.2,5.3-2.2
			c-0.1-0.7-0.2-1.3-0.4-1.9c-0.4-0.9-1.2-1.4-1.8-2.1c-0.5-0.6,0.1-2-0.3-2.8c-0.8-1.5-1.2-3.1-1.8-4.6c-1.5-3.9-2.6-8-3.1-12.4
			c1.5-0.5,3-0.9,4.5-1.4c1.6-0.4,3.2-0.9,3.8-2.7c-0.5-1.1-0.9-2.2-1.4-3.5c-3.8,1.3-7.4,2.5-10.9,3.6
			C338.8,458.2,335.1,459.3,331.1,460.6z M309.5,68.3c-1.5-0.2-2.8-0.4-4.1-0.7c-1.8-0.3-3.5-0.6-5.2-1c-0.4-0.1-0.9-0.6-0.9-1
			c0-1.4,0-2.7,0.2-4.1c1-5.1,2.1-10.2,3.1-15.4c0.1-0.4-0.1-0.8-0.2-1.2c-0.3,0-0.5,0-0.7,0c-1.2-0.1-2.4-0.4-3.6-0.4
			c-0.4,0-1,0.2-1.2,0.5c-0.3,0.5-0.5,1.2-0.6,1.8c-0.5,3.7-0.9,7.5-1.6,11.2c-0.6,3.7-1.5,7.4-2.3,11.1c-0.2,1.2,0,1.5,1.2,1.7
			c1.3,0.2,2.5,0.3,3.8,0.6c3.2,0.7,6.4,1.5,9.6,2.2c0.7,0.2,1.6,0.3,1.9-0.6C309.5,71.6,310.7,70.1,309.5,68.3z"/>
		<path fill="#FCF6F1" d="M236.7,248.4c1.3-1.9,0.6-3.8,0.4-5.8c-0.1-1-0.2-2.1-0.2-3.1c-0.1-1.5-0.1-3-0.1-4.5c0-0.5,0-1,0-1.5
			c0.3-4.6,0.7-9.2,0.1-13.7c-0.3-2.4,0.1-4.7,0.2-7c0.1-1.1-0.3-2.3-0.3-3.4c0-2.9,0-5.7,0-8.6c0.1-3.6,0.1-7.2,0.3-10.7
			c0.2-3.9,0.5-7.9,0.8-11.8c0.1-1.4,0.1-2.7,0-4.1c-0.2-2.2,0-4.2,0.6-6.3c0.5-1.6,0.4-3.4,0.5-5.1c0-0.2,0-0.4,0-0.6
			c1.1-3.6,1.7-7.4,3.8-10.7c0.2-0.2,0.3-0.5,0.5-0.7c1.9-1.9,3.5-4.1,6-5.5c0.7-0.4,1.4-0.7,2.1-1c2.5-1.1,5-2.1,7.4-3.3
			c2.1-1.1,4.4-1.4,6.7-1.6c0.9-0.1,1.5,0.4,1.8,1.5c0.5,2.2,0.3,4.4-0.3,6.6c-0.4,1.1-0.6,2.4-0.5,3.6c0.2,5-0.5,10-0.7,15
			c-0.1,1.4,0,2.7,0,4.4c1.6,0.1,3.1,0.2,4.5,0.3c1.6,0,3.3,0.1,4.9-0.1c2.5-0.3,4.9-0.9,7.4-1c2-0.2,4,0,6,0.1
			c4.1,0.2,8.2,0.5,12.3,0.7c1,0.1,2-0.1,3-0.1c1,0.1,2,0.3,2.9,0.4c0.7,0.1,1.4,0,2,0c0.8,0,1.6-0.1,2.3,0c4,0.4,7.9,1.5,11.4,3.6
			c4.3,2.5,6.8,6.3,7.3,11.4c0.2,2.1,0.3,4.2-0.1,6.3c-0.6,3.2-1.7,6.2-4.4,8.3c-0.3,0.2-0.5,0.6-1,1.2c2.4,0.9,4.2,2.5,6.7,2.8
			c1.8,0.3,3.5,1.1,5.3,1.6c1.1,0.3,2.2,0.6,3.3,1c0.6,0.2,1.2,0.5,1.8,0.8c2.3,1,4.6,2.1,6.8,3.1c1,0.5,2,1,3,1.5
			c1.9,1,3.6,2.4,5.6,3.1c4,1.3,7.3,3.9,11,5.6c0.4,0.2,0.8,0.4,1.1,0.7c2.4,2.5,5.5,3.7,8.3,5.5c2,1.3,4.1,2.7,6,4.2
			c0.5,0.4,0.8,1,1.2,1.5c0.3,0.4,0.5,0.9,0.9,1.2c2,1.6,3,3.8,4.3,5.8c0.5,0.8,1.2,1.5,1.9,2c2.1,1.6,4,3.3,4.7,6
			c0.3,0.9,0.9,1.7,1.2,2.7c1.6,5.1,2.1,10.4,1.8,15.6c-0.3,3.7-1.4,7.3-1.6,11c-0.2,4.1-2.1,7.6-3.9,11.1
			c-3,5.9-6.1,11.7-10.9,16.4c-1.6,1.6-3,3.5-4.5,5.2c-0.6,0.6-1.3,1.2-2,1.7c-2.1,1.6-4,3.3-6.2,4.6c-2.6,1.6-5.4,3-8.2,4.2
			c-2.8,1.3-5.5,2.7-8.1,4.3c-4.1,2.6-8.1,5.3-12.5,7.4c-2.3,1.1-4.4,2.9-6.5,4.4c-1.7,1.2-3.5,2.4-5.2,3.6
			c-0.9,0.7-1.5,1.8-2.5,2.3c-2.5,1.4-4.5,3.3-6.7,5c-3.1,2.3-6,4.8-8.1,8.2c-0.5,0.9-1.5,1.5-2.1,2.4c-2.8,4.4-5.8,8.7-7.6,13.7
			c-0.8,2.2-1.8,4.4-2.5,6.6c-0.7,2.1-1.3,4.3-1.8,6.5c-0.2,0.7-0.1,1.6-0.1,2.3c0.1,3.4,0.1,6.7,0.2,10.1c0,0.5,0.3,1.1,0.7,1.5
			c0.7,1,1.6,1.8,2.4,2.8c0.6,0.8,1.2,1.6,1.9,2.3c1.7,1.8,3.3,3.6,6.1,3.5c1.6,0,3.3,0.3,4.9,0.6c2.4,0.4,4.7,0.2,7-0.6
			c0.1,0,0.3-0.1,0.4-0.1c6.2-0.9,8.6-5.8,11.2-10.5c0.2-0.4,0.2-0.8,0.2-1.3c0.2-2.5,0.1-5,0.2-7.5c0-2.8-1.1-4.7-2.9-6.4
			c-1.4-1.3-3.1-2.1-5-2.3c-0.8-0.1-1.6-0.1-2.4-0.3c-1.1-0.2-1.8-0.9-2.1-2c-0.3-1,0.5-1.6,1.1-2.2c2.1-2,4.8-2.1,7.4-2.3
			c0.7,0,1.4,0,2.1,0.1c1.3,0.2,2.5,0.4,3.8,0.7c2.3,0.5,4.6,0.9,6.9,1.5c1.3,0.3,2.6,0.8,3.8,1.3c1.4,0.6,2.7,1.5,4.4,1.6
			c1,0,1.8,0.6,2.5,1.5c1.1,1.5,2.5,2.7,3.7,4.1c1.9,2.1,3,4.4,2.9,7.5c-0.1,3.6-1.6,6.6-2.9,9.8c-1.7,4.1-5,6.9-8.2,9.6
			c-1,0.9-2.3,1.4-3.6,1.9c-3.5,1.3-7.1,2.8-10.7,3.7c-2.6,0.7-5.4,0.6-8.1,0.9c-1.7,0.2-3.4,0.6-5.1,0.8c-0.7,0.1-1.4,0-2.1-0.1
			c-0.4,0-0.7-0.2-1-0.2c-3.1-0.1-6.1-0.2-9.2-0.3c-0.6,0-1.3-0.2-1.9-0.3c-3.1-0.4-6.3-0.8-9.4-1.3c-2-0.3-4-0.7-5.8-1.9
			c-2-1.5-4.2-2.7-6.4-4c-0.8-0.5-1.8-0.6-2.5-1.1c-1.2-0.8-2.2-1.8-3.3-2.7c-0.8-0.7-1.7-1.3-2.5-1.9c-2.6-2-5.2-3.9-7.1-6.8
			c-1.7-2.7-2.5-5.7-3.2-8.8c-0.6-2.7-1-5.5-1.6-8.2c0-0.1-0.1-0.3,0-0.4c0.5-2,0.6-4.1,1.4-6c2.4-5.4,6.2-9.9,10.8-13.6
			c2.5-2,5-4.1,7.5-6.1c1-0.7,2.1-1.2,3.2-1.8c3.6-2,7.1-4,10.7-6c2.1-1.1,4.2-2.2,6.2-3.4c4.2-2.5,8.4-5,12.6-7.6
			c2.2-1.4,4.2-2.9,6.4-4.3c1.9-1.2,3.8-2.4,5.7-3.6c4.7-3,8.7-6.7,13-10.3c0.4-0.3,0.8-0.7,1.2-0.9c1.9-0.8,3.2-2.1,4.1-3.9
			c0.2-0.4,0.6-0.6,0.9-0.9c3.3-3.2,6.1-6.7,8-11c1.2-2.7,2.8-5.3,4.2-8c0.7-1.3,1.3-2.7,1.8-4.1c0.8-2.6,1.6-5.3,2.1-8
			c0.6-3.1,0.8-6.3,1.2-9.4c0.5-3.7-0.2-7.4-0.5-11.1c-0.2-2-0.9-3.9-1.4-5.8c-0.5-1.8-0.8-3.6-1.4-5.3c-0.5-1.5-1.2-3-2-4.5
			c-1-1.8-1.9-3.7-2.6-5.6c-1.1-2.9-2.9-5.5-5.1-7.8c-0.9-0.9-1.6-2-2.5-2.9c-2.1-2.1-4.5-3.7-7.1-5.1c-2.1-1.1-4.2-2.3-6.4-3.5
			c-2.3-1.3-4.6-2.6-6.9-3.8c-1.1-0.5-2.3-0.6-3.5-0.9c-2.3-0.7-4.6-1.5-6.9-2.3c-2.3-0.7-4.6-1.5-7-2.1c-2-0.5-4-1-6-1.3
			c-4.1-0.6-8.3-1-12.4-1.6c-1.8-0.2-3.5-0.8-5.3-1c-2.2-0.2-4.4-0.8-6.6,0c-0.5,0.2-1,0.3-1.5,0.1c-2.2-0.8-4.2,0-6.3,0.1
			c-1.7,0.1-3.4,0-5.1,0.2c-1.3,0.1-2.7,0.3-4,0.5c-0.8,0.1-1.3,0.7-1.2,1.6c0.6,2.9-0.5,5.7-0.4,8.6c0.2,3.8-0.7,7.6,0.1,11.4
			c0.3,1.4,0.1,3-0.4,4.4c-0.7,2-0.5,3.9-0.1,5.9c0.2,1.4,0.8,2.7,0.4,4.1c-0.1,0.5,0.2,1.1,0.4,1.7c0.5,1.6,0.2,2.9-1.1,3.7
			c-1.8,1.1-3.7,1.9-5.9,1.7c-0.6-0.1-1.4-0.1-1.9,0.1c-1.7,0.9-3.5,0.6-5.3,0.5c-0.7,0-1.4,0-2.1,0.2c-2.2,0.4-4.3,1-6.5,1.1
			c-1.4,0.1-2.8-0.6-3.7-1.9C237.3,249.7,237,249.1,236.7,248.4z M264.4,193.5c0.5,0.2,0.6,0.3,0.7,0.3c3.7,0.3,7.4,0.7,11.1,0.9
			c2.6,0.2,5.1,0.2,7.7,0.9c0.2,0.1,0.4,0,0.6,0c2.9-0.2,5.8-1,8.7-0.3c0.5,0.1,1-0.1,1.5-0.1c1.1-0.1,2.1-0.3,3.2-0.4
			c3.9-0.1,6.9-2.1,9.3-5c0.5-0.6,0.8-1.3,0.4-2.2c-0.2-0.4-0.3-1-0.4-1.5c-0.5-2.3-3.2-3.9-5.5-3.5c-0.8,0.1-1.7,0.1-2.6,0.1
			c-2.4-0.1-4.7-0.3-7.1-0.5c-0.6,0-1.2,0.1-1.7-0.1c-3.1-1.1-6.4-0.5-9.5-0.7c-3.3-0.2-6.6,0.2-9.9,0.4c-1.5,0.1-3,0.5-4.4,0.7
			c-1.1,0.1-1.5,0.9-1.5,1.8C264.8,187.4,264.6,190.5,264.4,193.5z"/>
		<path fill="#FCF6F1" d="M275,153.2c0.2-0.3,0.3-0.5,0.4-0.6c2.5-1.6,3.1-4.3,3.5-7c0.3-1.9,0.7-3.8,0.8-5.7c0.2-2.5-0.7-4.8-1.8-7
			c-0.6-1.2-1.4-2.5-2.9-3c-0.6-0.2-1.2-0.6-1.6-1.1c-1.2-1.7-3.1-2-4.8-2.6c-0.7-0.2-1.6-0.4-2.2-0.9c-1.6-1.2-3.4-1.5-5.3-1.4
			c-0.8,0-1.7,0.1-2.4-0.6c-0.4-0.3-1.1-0.3-1.6-0.4c-3.3-0.5-6.6-0.4-9.9-1c-1.9-0.4-4.1,0.3-6.2,0.6c-2.7,0.4-5.4,0.9-8,1.5
			c-3.7,0.8-7.1,2.1-9.9,4.7c-1.1,1-2.6,1.4-3.8,2.3c-2.2,1.6-4.1,3.6-6.4,5.1c-3.4,2.2-6.4,4.6-9.1,7.5c-2.5,2.6-5.1,5.2-6.5,8.7
			c-0.2,0.6-0.7,1.3-1.3,1.6c-1.3,0.9-2.1,2.3-2.9,3.6c-1.4,2.3-3,4.5-4.4,6.8c-0.4,0.7-0.9,1.3-1.1,2.1c-0.6,2.3-1.9,4.3-2.8,6.4
			c-0.8,1.9-1.4,3.9-2.1,5.9c-0.4,1.3-0.8,2.6-1.2,3.9c-1,4-1.8,8.1-3.1,12c-1.1,3.4-0.9,7.1-1.9,10.5c-0.2,0.6,0,1.3-0.1,1.9
			c-0.4,3.2-0.9,6.4-1.3,9.5c-0.2,1.8-0.2,3.5-0.3,5.3c-0.2,3.4,0,6.8,0.5,10.2c-1,2.2,0.4,4.3,0.4,6.5c0,1.9-0.1,3.7,0.1,5.6
			c0.3,2.7,0.7,5.3,1.1,8c0.2,1.6,0.3,3.3,0.6,4.9c0.3,1.6,0.8,3.2,1,4.8c0.4,2.9,1.5,5.5,2.3,8.3c0.2,0.9,0.8,1.8,1.3,2.7
			c0.1,0.3,0.4,0.7,0.3,1c-0.2,1.5,0.7,2.4,1.6,3.4c0.4,0.4,1,0.9,1,1.3c-0.3,2.1,1.3,3.6,1.9,5.4c0.6,1.8,1.5,3.5,2.3,5.3
			c1.1,2.3,2.1,4.6,3.3,6.9c1.3,2.4,2.8,4.8,4.2,7.2c0.7,1.2,1.6,2.3,2.1,3.5c0.6,1.3,1.3,2.2,2.7,2.8c0.9,0.4,1.6,1.6,2.3,2.4
			c1.8,2.1,3.5,4.2,5.3,6.3c0.2,0.2,0.6,0.3,0.9,0.5c0.3,0.1,0.7,0,0.8,0.2c1.4,2.1,4.2,2.2,5.8,4.2c0.8,1,1.9,1.6,3.2,1.7
			c0.4,0,0.9,0.1,1.2,0.4c1.7,1.6,4,1.8,5.8,3.2c2.7,2,3,2.3,2.4,5.7c-0.1,0.9-0.1,1.9-0.2,2.8c-0.2,2-1,2.6-3,2.4
			c-0.8-0.1-1.7,0.3-2.5,0.2c-2.2-0.2-4.3-0.6-6.5-0.8c-3.2-0.4-6.1-1.8-9.2-2.9c-1.7-0.6-3.5-0.8-5.1-1.6c-3.4-1.6-6.6-3.4-9.9-5.1
			c-1.1-0.6-2.1-1.3-3.2-1.7c-2.1-0.8-3-2.7-4.7-4c-2.6-1.9-4.8-4.5-7.8-5.9c-1.7-0.8-3.2-2-4.5-3.3c-2.9-2.8-5.8-5.8-8.6-8.8
			c-2.5-2.7-5.1-5.4-7.5-8.3c-1.4-1.7-2.5-3.7-3.8-5.5c-2.2-2.9-3.8-6.2-5.9-9.2c-2-2.7-3-6.1-4.4-9.3c-1.1-2.5-2.1-5.1-2.9-7.8
			c-0.8-2.4-1.4-5-2.1-7.4c-1.4-4.6-1.7-9.4-2.1-14.1c-0.2-2.1-0.5-4.2-0.7-6.3c0-0.3,0.2-0.7,0.2-1c0-0.7,0.3-1.6,0-2.1
			c-1-1.5-0.6-2.9-0.3-4.5c0.4-2.7,0.2-5.6,0.7-8.3c0.8-4.4,1.9-8.7,3-13c0.8-3.1,1.7-6.1,2.7-9.2c0.5-1.7,1.3-3.3,1.9-5
			c0.4-1.3,0.7-2.6,1.1-3.9c0.6-1.8,1.2-3.7,2.1-5.4c1.3-2.3,2.5-4.6,3.2-7.1c0.1-0.5,0.4-0.9,0.6-1.3c0.3-0.5,0.6-1,0.8-1.5
			c0.6-1.7,1.1-3.5,1.9-5.2c0.5-1.1,1.4-2,2.1-3c1.1-1.8,2.1-3.8,3.3-5.6c1.7-2.6,3.5-5.2,5.3-7.8c1.4-2,2.7-4,4.2-5.9
			c1.1-1.5,2.5-2.7,3.8-4.1c1-1,2-2,3-3.1c0.1-0.2,0.3-0.4,0.4-0.5c2.6-1.6,5.2-3.3,7.8-4.9c1.5-0.9,3.1-1.8,4.6-2.8
			c0.6-0.4,1.1-1.1,1.7-1.6c2.8-2.2,5.6-4.5,8.5-6.6c0.8-0.6,1.9-0.8,2.9-1.2c0.3-0.1,0.7-0.1,1-0.3c2.9-2,6-3.5,9.3-4.5
			c0.3-0.1,0.5-0.2,0.8-0.3c3.1-1.9,6.6-2.7,10.1-3.6c2.8-0.7,5.5-1.6,8.3-2.2c2.6-0.5,5.2-0.8,7.9-1.1c2.4-0.3,4.8-0.7,7.3-0.9
			c2.1-0.2,4.3-0.2,6.4-0.3c1.6-0.1,3.1-0.1,4.7-0.1c2.1-0.1,4.3-0.2,6.4-0.3c0.6,0,1.2,0.3,1.8,0.4c2.8,0.6,5.7,1.2,8.5,1.8
			c1.8,0.4,3.5,0.6,5.3,0.9c3,0.6,6.1,1,9,1.8c3,0.8,5.9,1.9,8.8,2.9c0.8,0.3,1.4,1,2.2,1.4c2.9,1.6,5.3,4,7.4,6.5
			c0.7,0.9,1.1,2.1,1.5,3.2c0.7,1.8,2,3.3,2.4,5.3c0.6,2.8,0,5.5-0.2,8.2c-0.1,1.8-1.1,3.2-2.1,4.5c-2.6,3.5-5.7,6.4-9.3,8.8
			c-1.4,0.9-2.8,1.7-4.6,1.8c-2.8,0.2-5.5,0.5-8.2,0.7c-0.5,0-1.1-0.2-1.7-0.3c-1-0.2-2.1-0.7-2.9-0.4c-1.8,0.6-2.5-0.6-3.5-1.5
			C276,154.9,275.6,154.1,275,153.2z"/>
		<path fill="#FCF6F1" d="M230.9,223.4c-0.4,2-0.7,3.4-0.9,4.9c-0.2,1.5-0.9,2.6-2.3,3.1c-0.8,0.3-1.7,0.7-2.1-0.6
			c-0.1-0.2-0.6-0.3-0.8-0.5c-0.4-0.3-0.9-0.5-1.1-0.8c-1.1-2.1-3.9-2.6-5.4-0.7c-1.8,2.2-3.7,4.2-4.9,7c-1.1,2.6-1.7,5.1-1.8,7.8
			c0,1.3,0.4,2.5,1,3.7c1.4,2.4,2.8,4.8,4.2,7.1c0.5,0.8,1.2,1.1,2,1.4c2.6,0.9,5.2,0.6,7.8,0.9c1.1,0.1,2.2,0.1,3.2,0.1
			c1.2-0.1,2.4-0.3,3.6-0.5c1.2-0.1,2.4-0.3,3.6-0.4c3.2-0.2,6.5,0.3,9.7-0.8c0.1,0,0.3-0.1,0.4,0c4.9,1,9.9-0.3,14.8-0.1
			c3.1,0.1,6.3,0.2,9.4-0.4c1.6-0.3,3.4,0,5.1-0.1c0.9,0,1.8-0.3,2.8-0.3c2.8,0,5.6,0,8.4,0.1c3.6,0.1,7.2,0.2,10.7,0.4
			c2.4,0.2,4.8-0.5,7.2-0.3c5.8,0.5,11.8-0.2,17.4,1.7c1.4,0.5,3.1,0.5,4.6,0.6c1.9,0.2,3.9,0.2,5.8,0.5c1.2,0.2,2.3,0.8,3.3,1.4
			c1.9,1.1,3.7,2.2,5.4,3.5c1.9,1.4,3.5,3.2,4.5,5.3c0.6,1.2,0.5,2.1-0.3,3.7c-2.1,0.7-3.8-0.1-5.6-1.1c-1.5-0.8-3.4-1.1-5.1-1.6
			c-0.6,2.2-1.6,4.2-1.7,6.2c-0.1,1.5-0.3,2.9-0.9,4.2c-2.5,6.6-4.8,13.3-7.4,19.9c-1.2,3-2.5,6-4.5,8.5c-1.9,2.3-2.7,5.2-4.7,7.4
			c-0.7,0.7-0.8,1.9-1.4,2.8c-2.2,3.2-5.2,5.6-8.4,7.8c-2.4,1.6-4.7,3.4-7.1,5.1c-1.2,0.8-2.6,1.4-3.9,2.1c-0.9,0.5-1.8,1.1-2.7,1.7
			c-1.1,0.7-2.1,1.5-3.5,1.6c-2.8,0.1-5.1,1.8-7.7,2.5c-0.8,0.2-1.5,0.6-2.2,0.7c-2.5,0.6-5,1.3-7.5,1.7c-1.5,0.3-2.9,0.1-4.4-0.5
			c-1.2-0.6-1.1-1.8-1.8-2.5c-1-1-0.1-1.8,0.3-2.7c0.6-1.2,1-2.5,1.5-3.8c0.3-0.8,0.8-1.2,1.7-1.7c1.5-0.8,3.3-0.4,4.7-1.6
			c1.2-1.1,2.7-1.9,3.9-3c1.3-1.2,2.4-2.5,3.4-3.8c2.3-3,4.2-6.2,6-9.6c0.8-1.5,2-2.8,2.9-4.2c1.2-1.8,2.4-3.5,2.3-5.8
			c0-0.7,0.2-1.6,0.7-2.2c1.4-2,2.1-4.2,2.3-6.6c0-0.8,0.2-1.8,0.5-2.5c1.3-2.7,1.4-5.7,1.9-8.6c0.5-3.5,0.4-7-0.2-10.6
			c-0.2-1.2-0.2-2.4-0.3-3.8c-2,0.3-3.9,0.6-5.8,0.7c-3.8,0.3-7.6,0.4-11.4,0.6c-3.1,0.1-6.2,0.2-9.2,0.3c-2.6,0.1-5.1,0-7.7-0.4
			c-1.5-0.3-3.1-0.2-4.7,0c-3.3,0.4-6.6,0.7-10,0.8c-2.5,0.1-5,0.1-7.5,0.1c-0.8,0-1.6,0.1-2.3,0.3c-2.3,0.7-4.5,0.4-6.8,0.1
			c-1.5-0.2-3-0.3-4.4-0.5c-1.7-0.2-3.4-0.4-5.1-0.7c-3-0.6-6-0.6-9-0.6c-1.5,0-3.1-0.6-4.5-1.2c-3.1-1.3-6-3.1-9.2-4.3
			c-2.4-0.9-4.6-2-6.3-3.9c-0.9-1-1.8-2.2-2.6-3.4c-1-1.3-1.8-2.7-2.8-4.1c-0.5-0.7-0.8-1.4-1-2.3c-0.3-1.3-1.3-2.5-2-3.7
			c-0.9-1.5-1.3-3.1-1.5-4.9c-0.2-2.1-0.8-4.1-0.8-6.2c0-1.7-0.5-3.3,0.1-5c0.8-2.2,1.1-4.6,1.5-6.9c0.6-4,2.3-7.5,4.7-10.7
			c1.1-1.5,2-3.1,3.9-3.9c1-0.5,1.7-1.6,2.7-2.4c2.4-1.9,5.4-2.8,8.3-3.5c1.8-0.5,4,0.2,5.9,0.6c1.8,0.4,3.6,1,5.3,1.6
			c1.3,0.5,2.4,1.2,3.6,1.8c0.8,0.3,1.6,0.6,2.4,0.8c1.6,0.5,2.4,1.7,3.2,3c0.4,0.6,0.6,1.4,1.1,1.8c1.4,1.3,1.9,3,2.2,4.8
			c0.2,0.9,0.6,1.7,1,2.6C229.6,220.3,230.4,222.1,230.9,223.4z"/>
		<path fill="#FCF6F1" d="M243.2,274.9c1-0.2,2.1-0.4,3.1-0.5c3-0.3,6.1-0.5,9.1-0.7c1.3-0.1,2.7,0,4,0.2c1.4,0.2,2.5,1.7,2.1,3
			c-0.5,1.5,0,2.9,0.2,4.2c0.2,0.9,0.1,1.7,0.1,2.6c-0.2,3-0.1,6-0.4,8.9c-0.4,3.2,0.1,6.4,0.2,9.6c0.1,2.2,0.1,4.3,0.1,6.5
			c0,3.6-0.1,7.1-0.2,10.7c-0.1,3.5-0.1,7-0.8,10.4c-0.4,1.6-0.2,3.4-0.2,5.1c0,0.6,0.1,1.3-0.2,1.7c-0.9,1.4-0.6,3.1-0.8,4.6
			c-0.3,2.3-0.7,4.7-0.9,7c-0.3,3.4-1.8,6.6-2.2,10c-0.2,2-1.4,4-2.5,5.8c-1.8,3-3.8,5.9-5.7,8.7c-0.3,0.4-0.8,0.6-1.2,0.9
			c-1.8,1.2-3.5,2.4-5.3,3.6c-0.9,0.6-1.8,1.4-3.1,1.4c-0.7,0-1.5,0.5-2.1,0.9c-2.1,1.6-4.5,2.3-7,2.5c-1.9,0.2-4-0.4-6-0.7
			c-0.5-0.1-1-0.2-1.5-0.1c-1.9,0.5-3.7,0.1-5.5-0.4c-0.7-0.2-1.5-0.3-2.3-0.4c-1.2-0.2-2.6,0-3.5-1.2c-0.3-0.4-1-0.7-1.5-0.8
			c-2.1-0.3-3.3-2-4.6-3.3c-0.8-0.8-1.7-1.7-2.4-2.7c-2.2-3.3-2.3-7-1.9-10.8c0.1-0.6,0.4-1.2,0.7-1.8c1.1-2.1,2.3-4.2,3.4-6.4
			c0.9-1.7,4.2-3.5,6.1-3.2c1.1,0.2,2.3,0.3,3.4,0.5c0.9,0.1,1.2,0.7,1.1,1.6c-0.2,1.1-0.5,2-1.3,2.9c-2.7,2.9-2.1,7.3,1.1,9.5
			c0.2,0.1,0.4,0.2,0.5,0.4c2.4,2.4,5.1,1.6,7.8,0.6c0.6-0.2,1.2-0.6,1.7-0.8c3.1-1.3,5.5-3.2,7.3-6.3c1.7-3,2.8-6.3,3.7-9.5
			c0.8-2.9,1.9-6,1.3-9.3c-0.2-1.1,0.2-2.3,0.2-3.4c-0.1-3.3-0.2-6.7-0.5-10c-0.3-3.1,0-6.1-0.3-9.1c-0.3-3-0.1-6-0.4-9
			c0-0.5-0.1-1,0-1.5c0.7-1.9,0.5-3.9,0-5.7c-0.6-2.1-0.2-4.1-0.2-6.1c-0.1-2.6,0.1-5.2,0.1-7.9c0-1.4-0.1-2.9,0.2-4.2
			c0.4-1.8,0-3.5-0.3-5.2c-0.3-2,0.1-2.7,2.1-2.9c1.7-0.2,3.4-0.4,5.1-0.6C243.2,274.7,243.2,274.8,243.2,274.9z"/>
		<path fill="#FCF6F1" d="M396.4,404.9c2.9-3.3,5.9-6.3,8.4-9.7c5.7-7.5,11.2-15.1,16.9-22.7c1-1.4,2.1-2.7,3.3-4.2
			c4.5,1.7,9,3.8,12.3,7.4c3.4,3.7,6.4,7.8,7.5,13.1c0.9,4,0.9,7.9,0.3,11.8c-1.2,7.5-1.4,14.9-0.7,22.4c0,0.3-0.1,0.5-0.1,0.8
			c-0.2,0.1-0.2,0.1-0.3,0.1c-5.5-1.8-11.2-1.6-16.9-1.6c-2.7,0-5.5,0-8.2,0c-2.1,0-4-0.5-5.8-1.4c-4.3-2.2-8.5-4.6-12-8
			c-1.4-1.4-2.6-2.8-3.3-4.7C397.6,407.1,397,406.1,396.4,404.9z"/>
		<path fill="#FCF6F1" d="M450.7,225.6c3-0.8,5.9-1.5,8.7-2.2c0.3-0.1,0.7-0.2,1-0.4c1.5-1.4,3.4-1.5,5.2-1.5
			c4.6,0,9.1,0.8,13.6,2.1c1.4,0.4,3,0.5,4.3,1.1c3.1,1.4,6,3.3,8.4,5.8c3,2.9,6.2,5.4,10.2,6.9c1,0.4,2,0.9,3.2,1.5
			c-1.1,1.2-2,2.6-3.1,3.6c-2.8,2.4-4.9,5.4-7.2,8.2c-2.6,3.2-5.4,6.2-7.9,9.4c-1.6,2-3.1,3.9-5,5.6c-2.9,2.8-6.2,4.5-10.3,5
			c-2.8,0.3-5.4,0.2-8.1-0.2c-1.5-0.3-3.1-0.1-4.7-0.2c-2.3-0.2-2.5-0.4-2.7-2.7c-0.2-2.6-0.1-5.3-0.4-8c-0.6-5.1-1.4-10.1-2.1-15.1
			c-0.7-5.1-1.5-10.2-2.3-15.3C451.3,227.9,450.9,226.7,450.7,225.6z"/>
		<path fill="#FCF6F1" d="M461.5,375.2c4.6-1.8,8.8-3.6,13.1-5.1c2.5-0.9,5.3-1.3,7.9-1.7c1.4-0.2,2.8,0.3,4.3,0.4
			c1.4,0.1,2.7,0.4,4.1,0.3c1.2-0.1,1.8-1.1,1.7-2.1c-0.2-1.2-1.4-2.7-2.3-2.5c-1.5,0.4-2.4-0.5-3.2-1.4c-1.4-1.6-2.7-3.3-3.9-5.1
			c-1.5-2.3-2.7-4.7-4-7.1c-0.3-0.6-0.4-1.3-0.6-2.2c3.5,0.6,6.3-0.4,9.3-1.5c2.6-1,5.3-1.8,8.2-1.1c0.6,0.2,1.3,0.1,1.8,0.1
			c0.9-0.9,0.6-1.7,0-2.4c-2-2.4-3-5.2-3.4-8.3c-0.2-1.3-0.7-2.5-0.9-3.8c-0.6-2.7-2.3-4.8-4.3-6.5c-1.6-1.3-3.6-2.1-5.4-3
			c-0.6-0.3-1.4-0.2-2.5-0.3c1.3-0.7,2.3-1.3,3.2-1.9c3.9-2.3,7.8-4.5,11.7-6.8c1.3-0.8,2.4-2,3.7-2.9c2.3-1.5,4.6-2.9,7-4.2
			c0.6-0.3,1.6-0.1,2.6-0.1c-0.2,1.8-0.4,3.4-0.6,4.9c-0.6,3.6-1.1,7.2-2,10.8c-0.8,3.5-1.9,6.9-2.9,10.3c-1.5,4.9-3,9.8-4.5,14.6
			c-0.8,2.5-1.7,5-2.4,7.6c-0.4,1.6-0.6,3.3-1,4.8c-1,3.3-2.1,6.6-3.3,9.8c-1.1,2.9-2.4,5.7-3.8,8.4c-0.7,1.5-1.6,2.9-2.4,4.3
			c-2.5,4.3-5.1,8.6-7.6,13c-1.8,3.3-4.2,6.2-6.4,9.1c-1.3,1.8-2.4,3.7-3.7,5.6c-0.9,1.2-1.7,2.5-2.8,3.6c-2.7,2.8-4.5,6.3-6.9,9.4
			c-2,2.6-4.2,5.1-6.3,7.6c-3.9-2.2-4.5-5.9-4.9-9.6c-0.6-5.5-0.2-11.1,0.6-16.6c0.1-0.9,0.3-1.8,0.4-2.6c0.3,0,0.5-0.1,0.6-0.1
			c2.4,1.5,5,1.2,7.5,1c2.4-0.1,4.8-0.5,7.1-1.5c1.7-0.7,3.6-0.7,5.4,0.3c1.4,0.8,1.7,0.7,3.5-0.5c-0.5-0.4-0.9-0.9-1.5-1.2
			c-2.3-1.3-3.6-3.3-4.1-5.8c-0.7-3.6-1.3-7.2-1.9-10.8c-0.4-2.5-1.4-4.7-3.4-6.3C462.3,376.1,462.1,375.8,461.5,375.2z"/>
		<path fill="#FCF6F1" d="M481.8,363.9c-2.2,0.5-4,1.1-5.9,1.4c-4.1,0.6-7.8,2.3-11.6,3.9c-2.8,1.2-5.7,2.4-8.6,3.5
			c-4.7,1.7-9.4,0.8-13.9-0.7c-3.8-1.3-7-3.4-9.1-6.8c-0.3-0.5-0.9-0.9-1.4-1.2c-0.8-0.5-1.6-1-2.5-1.6c1.2-2.2,2.3-4.3,3.5-6.4
			c2-3.9,4-7.9,6.1-11.8c0.9-1.7,2.1-3.3,3.1-4.9c0.2-0.2,0.3-0.5,0.4-0.8c2.2-5.9,4.4-11.8,6.7-17.9c1.9-0.6,3.9,0.2,5.8,0.8
			c4.2,1.4,8,3.4,11.2,6.6c1.9,2,3.4,4.3,4.3,6.9c1.4,4,2.5,8.1,4,12c1.9,5,3.7,10,6.6,14.4C480.8,361.9,481.2,362.8,481.8,363.9z"
			/>
		<path fill="#FCF6F1" d="M152.9,416.4c3.1,2.2,6,4.2,8.9,6.3c3.8,2.6,7.4,5.4,11.3,7.8c3.4,2.1,7,3.7,10.5,5.4
			c0.6,0.3,1.2,0.5,1.8,0.8c2.4,1.2,2.7,2.1,1.9,4.6c-0.3,1-0.7,2-1,3.1c-0.3,1.2-0.5,2.5-0.9,3.7c-0.7,1.6-1.4,3.3-2.5,4.7
			c-1.6,2-3.8,3.4-6.4,4.2c-6.8,2-13.7,3.8-20.7,5.2c-3.6,0.7-6.9,2-9.7,4.2c-0.3-0.1-0.5-0.1-0.5-0.2c-2.1-3.4-4.2-6.9-6.4-10.2
			c-1.2-1.9-2-3.9-2.6-6.1c-0.7-2.8-1.4-5.6-1.5-8.5c-0.2-4.2,1-8,2.7-11.6c0.2-0.5,0.5-0.9,0.7-1.3c0.6-1.5,1.6-2.4,3.1-3.1
			c3.5-1.4,6.3-3.6,8.4-6.8C150.7,417.6,151.9,417.1,152.9,416.4z"/>
		<path fill="#FCF6F1" d="M177,108.8c-2.4,1.4-4.5,2.7-6.5,3.9c-1.9,1.1-3.9,2.2-5.7,3.5c-6.8,4.6-13.8,8.9-19.6,14.7
			c-0.5,0.5-0.8,1-1.3,1.4c-1.9,2-3.8,4.1-5.9,6.3c-0.8-2-2.3-2.8-3.6-3.9c-2.3-1.9-4.4-4-6.3-6.3c-3.4-4.2-4-8.9-3.9-14
			c0.1-4.8,1-9.4,2.8-13.8c0.5-1.3,0.6-2.8,0.8-4.2c0.2-2.1,0.3-4.3,0.4-6.6c1.1,0,2.2-0.1,3.3,0c2,0.2,3.8-0.2,5.7-0.7
			c3.3-0.8,6.6-1.2,9.9-1.7c0.2,0,0.4,0,0.6,0c3.3,1.2,6.8,1.5,10,3.3c1.9,1,4,1.5,5.9,2.5c1.6,0.8,3,1.8,4.3,3.2
			c2.9,3,4.9,6.5,7.2,9.9C175.7,107.1,176.4,108,177,108.8z"/>
		<path fill="#FCF6F1" d="M404.8,459.7c-4.5-2.2-9-2.4-13.7-2.3c-3.9,0.1-7.9-0.3-11.8-0.5c-3.2-0.2-5.8-1.7-8.1-3.7
			c-1.7-1.4-3.3-3-4.8-4.7c-0.9-1-1.3-2.3-1.9-3.5c-0.9-1.6-1.7-3.4-2.7-4.9c-0.8-1.2-1.4-2.4-1.7-3.9c-0.2-1.2-0.7-2.3-1-3.6
			c11.7-6,22.5-13.2,32-22.6c0.5,0.6,0.8,1.1,1.3,1.5c0.9,0.8,2,1.4,2.9,2.2c1.1,0.9,2.4,1.7,3.2,2.8c1.3,1.7,2.8,3.1,4.7,4.1
			c2.9,1.5,3.7,4.3,4.5,7.1c1.4,5.2,1.5,10.4,0.2,15.8c-1.3,5-2.6,10-2.7,15.3C405.1,458.9,405,459.1,404.8,459.7z"/>
		<path fill="#FCF6F1" d="M449.1,220.1c-0.5-1.3-0.9-2.3-1.2-3.3c-2.3-6.6-4.6-13.1-6.9-19.7c-0.4-1.2-1.2-2.3-1.8-3.4
			c-2.5-4.6-4.9-9.3-7.3-13.9c-0.1-0.2-0.1-0.4-0.3-0.8c2-1,3.7-2.5,5.9-3.4c1.6-0.6,3-2,4.3-3.2c3.3-2.9,7.2-3.9,11.6-3.6
			c3.2,0.2,6.3,0.4,9.3,1.6c1.9,0.7,3.7,1.6,5.5,2.5c4.3,2,8.7,3.7,13.5,4.5c0.3,0,0.5,0.2,1,0.3c-0.7,1.5-1.2,3-1.9,4.3
			c-3.7,6.8-5.7,14.2-8.2,21.4c-1.3,3.7-3.4,7.1-6.4,9.6c-3.1,2.5-6.6,4.6-10.8,5c-1.2,0.1-2.4,0.8-3.7,1.2
			C450.7,219.5,450,219.8,449.1,220.1z"/>
		<path fill="#FCF6F1" d="M456.2,277.1c3.4-0.4,6.8-0.8,10.2-1.2c2.1-0.3,4.1,0.4,6.1,1c3.5,1.1,7,2.3,9.9,4.7
			c1.8,1.5,3.7,3,5.2,4.8c2.7,3.1,5.4,6.2,7.7,9.5c1.9,2.7,4,5.2,6.4,7.4c-0.1,0.2,0,0.4-0.1,0.4c-2.8,2.1-5.6,4.3-8.5,6.3
			c-2.6,1.7-5.5,3.1-8.2,4.7c-4.5,2.7-9.4,4.2-14.6,4.8c-2.7,0.3-5.3-0.6-7.9-1c-1.5-0.3-2.9-0.7-4.4-1c-1.5-0.3-2.9-0.9-4-1.9
			c-0.5-0.5-1.1-0.8-1.9-0.7c-0.7,0-1.4-0.4-2.4-0.7c1-3.7,2.1-7.2,2.9-10.8c0.9-4,1.9-7.9,2.1-12.1c0.2-4.4,0.8-8.7,1.3-13.1
			C456,277.8,456.1,277.5,456.2,277.1z"/>
		<path fill="#FCF6F1" d="M133.3,143.4c-0.3,0.4-0.5,0.8-0.8,1c-3,2.2-4.7,5.5-7.1,8.4c-3.8,4.6-7.6,9.2-11.3,13.9
			c-1.6,2-2.7,4.4-4,6.6c-0.5,0.9-0.9,1.8-1.4,2.8c-2-1.1-4.1-1.9-5.9-3.1c-2.7-1.7-4.9-4-6.5-6.8c-2.3-4-4.6-8-6.7-12.1
			c-1.4-2.8-2.2-5.8-2.3-8.9c-0.1-3.7-0.8-7.3-2.5-10.6c-0.2-0.3-0.2-0.6-0.5-1.2c0.7,0,1.3-0.2,1.8-0.1c3.5,0.4,6.7-0.6,9.9-1.8
			c1.3-0.5,2.6-0.9,3.9-1.2c2.7-0.7,5.4-1.5,8.1-2.1c5-1.2,9.6-0.1,13.9,2.4c1.8,1,3.1,2.9,4.5,4.5c1,1,1.9,2.2,2.8,3.3
			C130.6,139.8,131.9,141.6,133.3,143.4z"/>
		<path fill="#FCF6F1" d="M54.8,189.4c1.1-0.2,1.8-0.3,2.5-0.5c1.9-0.4,3.8-0.8,5.6-1.3c1.9-0.6,3.9-1.1,5.6-2.1
			c2.2-1.2,4.3-2.6,6.3-4.1c1.5-1.2,3.2-1.9,5-2.5c2.2-0.8,4.5-1.6,6.7-2.2c2.9-0.8,5.9-0.8,9-0.4c0.3,0,0.7,0.3,1,0.2
			c3.2-0.2,5.7,1.2,7.8,3.4c0.3,0.4,0.8,0.6,1.4,1c-0.6,1.1-1.2,2.1-1.7,3.1c-1.2,2.5-2.4,5-3.5,7.6c-1.9,4.6-3.8,9.3-5.6,14
			c-2,5.3-4,10.6-5.9,15.9c-0.8,2-0.8,2.1-3,1.9c-8.8-0.8-15.8-4.6-20.1-12.6c-1.8-3.3-3.4-6.7-4.7-10.2
			C59.7,196.9,58.2,192.9,54.8,189.4z"/>
		<path fill="#FCF6F1" d="M446.1,129.2c0,0.8,0.1,1.4,0,2c-0.1,1-0.5,1.9-0.6,2.9c-0.2,4.8-0.3,9.6-0.4,14.4c0,1.6,0.2,3.3,0.3,4.9
			c0,3.1-1.5,5.7-2.9,8.3c-1.1,1.9-2.5,3.7-3.8,5.5c-1.1,1.5-2.7,2.6-4.5,3.1c-0.4,0.1-1,0.3-1.1,0.6c-0.8,2-2.9,2.2-4.5,3.2
			c-1.5-2.2-2.8-4.4-4.3-6.5c-2.9-4.1-5.8-8.2-8.8-12.2c-2.7-3.6-5.5-7-8.3-10.5c-0.8-1-1.9-1.8-2.8-2.7c-0.9-0.9-1.7-1.9-2.6-2.9
			c0.4-0.5,0.6-1,1-1.3c2.5-1.9,4.2-4.5,6.2-6.8c3.1-3.4,6.9-5.6,11.4-6.6c1.4-0.3,2.9-0.1,4.3,0.1c3.5,0.5,6.8,1.7,10.2,2.8
			c2.8,0.9,5.9,1,8.9,1.4C444.4,129.1,445.2,129.2,446.1,129.2z"/>
		<path fill="#FCF6F1" d="M398.6,135.9c-1.2-0.9-2.3-1.8-3.4-2.7c-3.4-2.6-7-5.1-10.2-7.9c-2.2-1.9-4.5-3.8-6.9-5.5
			c-0.9-0.6-1.4-1.8-2.3-2.6c-2.9-2.8-6-5.3-9.9-6.8c-1-0.4-1.8-1.1-2.8-1.6c2.3-6.5,6.1-11.9,12.1-15c3.9-2,8.2-2.9,12.8-1.9
			c3.4,0.7,6.9,0.5,10.3,0.3c2.2-0.1,4.4-0.5,6.8-0.7c0.1,0.5,0.3,1,0.3,1.6c0.3,3.1,0.6,6.3,1.5,9.3c0.7,2.2,0.6,4.7,0.9,7
			c0.2,2.1,0.5,4.3,0.6,6.4c0.3,4.5-0.4,8.9-2.7,12.9c-0.3,0.5-0.6,1.1-1.1,1.3c-1.9,1.2-3.3,2.9-4.7,4.7
			C399.6,135.2,399.1,135.5,398.6,135.9z"/>
		<path fill="#FCF6F1" d="M53,314.3c4.7-4.4,6.3-10.1,8.9-15.3c2.2-4.4,4.5-8.7,7-12.9c1.2-1.9,3-3.5,5.1-4.5c1.9-0.9,3.8-1.9,5.7-3
			c1.3-0.7,2.6-0.9,4.1-0.4c0.1,0.6,0.1,1.3,0.2,2c0.2,3,0.4,6,0.7,9c0.4,3.9,0.7,7.7,1.2,11.6c0.4,3.3,0.9,6.5,1.7,9.7
			c1.2,5.2,2.7,10.3,4.1,15.4c0.5,2,0.3,2.3-1.5,3.1c-3.2,1.4-6.4,1.9-9.9,1.2c-4.6-1-8.6-2.9-12.2-6.1c-2.7-2.5-5.6-4.7-8.6-6.9
			c-1-0.8-2.3-1.2-3.5-1.7C55.2,315.2,54.3,314.8,53,314.3z"/>
		<path fill="#FCF6F1" d="M45,246.4c2.1-1.4,4.1-2.7,6.1-4.1c2.2-1.5,4.4-2.9,6.4-4.7c2.7-2.3,5.8-4,8.9-5.6c2.2-1.1,4.6-2,6.9-3
			c2.5-1,5.2-1.1,7.9-0.7c1.7,0.2,3.4,1.1,5.3,1.7c-0.2,1.6-0.5,3-0.7,4.5c-0.5,3.4-1.1,6.8-1.5,10.2c-0.3,2.4-0.4,4.9-0.4,7.3
			c0,3.3,0.1,6.6,0.1,9.8c0,2.5,0.1,5,0.2,7.5c0.1,1.2-0.6,1.7-1.6,2c-3.5,1-7.1,1.3-10.6,0.1c-2-0.7-3.8-1.7-5.7-2.6
			c-2.6-1.4-4.3-3.8-6.1-6c-2.9-3.4-5.6-7-8.3-10.5c-1.7-2.2-3.5-4.2-6.1-5.3C45.5,247,45.3,246.7,45,246.4z"/>
		<path fill="#FCF6F1" d="M104.3,423.2c0.2-1.1,0.3-2,0.5-2.9c0.9-3.6,0.4-7.1,0.2-10.7c-0.1-1.4-0.2-2.9-0.1-4.3
			c0.2-2.6,0.4-5.2,0.7-7.7c0.6-4.6,2.8-8.4,5.8-11.8c0.7-0.8,1.6-1.4,2.5-2c1.9-1.2,3.8-2.3,5.9-3.6c1.4,2,2.9,4,4.4,6.1
			c1.4,2,2.9,3.9,4.3,5.9c3.4,4.7,7.6,8.8,11.6,13c2.5,2.7,5,5.1,8,7.2c0.2,0.2,0.3,0.4,0.7,0.9c-1.5,0.8-2.8,1.7-4.2,2.3
			c-2.3,1-4.2,2.6-5.8,4.3c-1.4,1.5-2.9,2.5-5,2.4c-2.2-0.1-4.3-0.2-6.5-0.3c-3.3-0.2-6.6-0.4-9.9-0.5c-2.1-0.1-4.3,0-6.4,0.2
			c-1.8,0.2-3.5,0.8-5.2,1.2C105.3,422.9,104.9,423,104.3,423.2z"/>
		<path fill="#FCF6F1" d="M95,336.4c1.1,2.5,2.2,5,3.3,7.5c1.5,3.4,3.1,6.8,4.7,10.2c1.1,2.3,2,4.8,3.3,7c2.8,4.6,5.9,9,8.9,13.5
			c0.1,0.2,0.2,0.4,0.3,0.6c-1,0.8-1.9,1.5-2.9,2.3c-1.8,1.4-4,2.1-6.3,2c-3.7-0.3-7.4-0.8-11.1-1.4c-5.5-0.9-10.9-2-16.3-2.9
			c-1.2-0.2-2.6,0-3.9,0.1c-0.7,0-1.4,0.1-2.4,0.2c0.3-1.5,0.5-2.7,0.7-3.9c0.7-3.9,1.3-7.8,2.1-11.6c0.8-4.3,1.9-8.6,4.1-12.4
			c2-3.3,4.1-6.5,7.4-8.8C89.5,336.8,92,336,95,336.4z"/>
		<path fill="#FCF6F1" d="M510,241.6c0.4,2.5,0.9,4.8,1.1,7c0.3,3.5,0.5,7,0.6,10.5c0.2,4.4,0.3,8.8,0.4,13.1c0,2.1,0.1,4.3-0.1,6.4
			c-0.4,5.3-1,10.6-1.5,15.8c-0.1,1.2-0.1,2.4-0.3,3.6c-0.1,1-0.3,1.9-0.5,2.9c-1.7,0.2-3-0.2-4.3-0.9c-3-1.6-5.2-4.1-7.1-6.8
			c-1.1-1.6-2.3-3.1-3.5-4.8c0.9-0.3,1.7-0.5,2.5-0.8c1.6-0.6,2.9-1.7,3.7-3.1c1.8-3,4.4-5.3,6.7-7.8c0.3-0.4,1-0.4,1.5-0.7
			c0.4-0.3,1-0.8,1-1.2c0-0.4-0.4-1-0.8-1.3c-0.4-0.3-0.9-0.5-1.4-0.6c-2.1-0.2-3.4-1.6-4.9-2.9c-2.4-2.1-4.8-4.1-7.3-6
			c-1.4-1-3-1.6-4.7-2.5c0.3-0.4,0.6-0.8,0.9-1.2c3.2-3.9,6.2-7.9,9.5-11.6C504,246.2,506.2,243.3,510,241.6z"/>
		<path fill="#FCF6F1" d="M90.3,251.1c0-3.3,0.8-4,3.2-4.2c2.9-0.3,4.9,1,6.2,3.6c1,2,1.7,3.9,1,6.3c-0.9,3.3-3.8,4.3-6.6,2.2
			C91.3,256.6,90.7,253.5,90.3,251.1z"/>
		<path fill="#FCF6F1" d="M155.6,144.6c-0.2,3.2-0.9,3.9-4.3,4.4c-0.8,0.1-1.5,0.5-2.3,0.5c-3.4-0.3-4.4-2.2-4.3-5.4
			c0.1-1.8,1-3.4,2.2-4.8c1.5-1.7,4.2-1.8,6-0.4C154.9,140.4,156.1,142.1,155.6,144.6z"/>
		<path fill="#FCF6F1" d="M357.8,424.2c-0.4,3-1.4,5.3-3.3,7.1c-0.7,0.7-1.9,1.1-3,0.3c-0.5-0.3-1-0.6-1.5-0.8
			c-1.8-0.6-2.7-1.9-3.3-3.5c-0.6-1.5-0.3-2.9,0.8-3.9c0.9-0.8,1.9-1.5,2.9-2.2c2.2-1.8,4.8-1.1,6.4,0.4
			C357.5,422.2,357.5,423.5,357.8,424.2z"/>
		<path fill="#FCF6F1" d="M438.2,207.5c1,2.9-0.4,5.4-1,8c-0.3,1.3-2.5,2.4-3.8,2c-2.2-0.6-3.5-2.1-4.3-4.1
			c-0.3-0.8-0.5-1.6-0.7-2.5c-0.4-1.8,0.3-3.7,1.9-4.6c1.9-1,3.8-1.2,5.7-0.1C436.7,206.8,437.5,207.2,438.2,207.5z"/>
		<path fill="#FCF6F1" d="M384.9,395.2c0.8,0.2,1.7,0.2,2.5,0.6c1.3,0.6,2,1.5,2.4,3c0.9,3-0.5,5.1-2,7.1c-1.3,1.8-2.8,1.7-4.6,0.6
			c-2.3-1.5-3.1-3.6-3.4-6.1C379.5,397.7,381.9,395.4,384.9,395.2z"/>
		<path fill="#FCF6F1" d="M213.4,103.4c-0.2-2.6,1.4-4.1,3.2-5.3c1.7-1.2,3.6-0.6,5.3,0.4c1.8,1.1,3.3,2.3,3,4.8
			c-0.2,1.1-0.6,2-1.7,2.5c-0.6,0.3-1.3,0.6-1.8,1.2c-1.1,1.2-2.7,1.4-4.1,1.4c-1.5,0.1-3.5-2.2-3.7-4.2
			C213.4,103.9,213.4,103.6,213.4,103.4z"/>
		<path fill="#FCF6F1" d="M133.3,170.9c0.6,2.4,0.3,4.7-0.4,7c-0.5,1.5-1.5,2.4-2.6,3.2c-1,0.7-2.2,0.8-3.2-0.1
			c-0.9-0.7-1.7-1.5-2.5-2.3c-0.3-0.3-0.6-0.8-0.7-1.3c-0.1-2.5,0.1-4.9,2.3-6.5C128.5,169.1,130.9,169.4,133.3,170.9z"/>
		<path fill="#FCF6F1" d="M383.7,134.2c0.9,0.2,2.4,0.4,3.7,1c1.3,0.5,2.1,1.6,2.2,3.2c0.1,1.7-0.5,3.3-1.2,4.7
			c-0.7,1.4-3.1,1.9-4.5,1.2c-0.6-0.3-1.2-0.5-1.8-0.7c-2.1-0.7-4.2-4.8-2.9-7.2C380.1,134.9,381.4,134.3,383.7,134.2z"/>
		<path fill="#FCF6F1" d="M437.7,252.4c-0.2-2,0.9-3.1,2.6-3.9c3.4-1.6,6.9,0.5,6.8,4.3c0,1.4-0.3,2.8-0.7,4.1c-1,3.2-3.9,4-6.2,1.5
			C438.8,256.8,437.5,254.9,437.7,252.4z"/>
		<path fill="#FCF6F1" d="M417.2,365.2c0.4,2.1-1,3.5-2.2,5c-0.7,0.9-2.4,1.1-3.4,0.6c-1.3-0.7-2.7-1.4-3.8-2.3
			c-1.8-1.4-1.8-3.4,0.1-4.8c0.3-0.3,0.7-0.5,0.9-0.9c1-1.8,2.8-2.1,4.6-2.3C416,360.4,417.4,362.4,417.2,365.2z"/>
		<path fill="#FCF6F1" d="M163.6,409.1c-0.1,0.5-0.2,1.3-0.6,1.9c-0.9,1.5-1.9,3-3.1,4.2c-1.2,1.2-2.8,1-3.9-0.2
			c-3.1-3.1-2.4-6.4,0-9.3c1.2-1.4,3.1-1.3,4.8-0.8C162.6,405.4,163.6,407.1,163.6,409.1z"/>
		<path fill="#FCF6F1" d="M437.9,330.3c-0.3,1.8-0.8,3.7-2.5,5.2c-2.1,1.8-4.9,1.5-6.3-1.1c-1-1.7-1.7-3.7-0.4-5.8
			c1.3-2.1,4.7-3.4,6.9-2.6C437.1,326.7,437.9,327.9,437.9,330.3z"/>
		<path fill="#FCF6F1" d="M446.6,293c-0.3,0.9-0.6,1.7-1,2.5c-0.4,0.8-0.9,1.5-1.2,2.3c-1.1,2.3-2.8,2.8-5,1.5
			c-2.8-1.6-3.7-6.2-1.7-8.6c1.6-2,5.8-2.6,7.8-0.2C446.1,291.1,446.2,292.1,446.6,293z"/>
		<path fill="#FCF6F1" d="M266.2,98.1c-2.8-0.1-5.5-2.9-5.4-5.8c0.1-2.7,2.2-4.3,5.4-4.2c2.7,0.1,5,2.4,5,5.1
			C271.2,96.2,269.2,98.2,266.2,98.1z"/>
		<path fill="#FCF6F1" d="M112.3,209.4c0,2.9-1.8,5.7-4.4,6.8c-1.1,0.5-3-0.3-3.9-1.6c-1.2-1.7-1.4-6.1-0.1-7.7
			c0.6-0.7,1.8-1.2,2.8-1.5C109.6,204.5,112.3,206.5,112.3,209.4z"/>
		<path fill="#FCF6F1" d="M420,176.5c0.2,1.7-0.2,3.1-1.7,4.1c-1.5,0.9-3.2,0.8-4.7-0.3c-1.3-1-2.5-2.1-3.1-3.7
			c-1-2.7-0.2-4.5,2.5-5.4c3.9-1.3,6.2,0.6,7,4.5C420,175.9,420,176.2,420,176.5z"/>
		<path fill="#FCF6F1" d="M324.4,433c2.8,0.2,4.9,1.8,5,4.1c0,1.3-0.8,2.6-1.3,4c-0.1,0.3-0.3,0.5-0.5,0.7c-1,1.1-1.8,2.9-3.6,2.1
			c-1.9-0.8-3.9-1.9-4.5-4.2c-0.2-0.7,0.1-1.6,0.4-2.3c0.7-1.9,1.6-3.7,3.8-4.2C324,433.1,324.3,433,324.4,433z"/>
		<path fill="#FCF6F1" d="M271.9,441.3c2.2-0.3,3.8,1.2,4.8,2.7c0.9,1.4,0.7,3.4-0.2,5.1c-0.8,1.5-2.1,2.3-3.6,2.6
			c-0.6,0.1-1.4,0-1.8-0.3c-1.5-1.1-3-2.5-3.6-4.3C266.5,444.2,268.7,441.3,271.9,441.3z"/>
		<path fill="#FCF6F1" d="M180.6,114.5c0.1,0,0.6-0.1,1.1,0c1.9,0.4,2.5,1.3,3,3.4c0.5,2.3-0.8,4.1-2.1,5.6
			c-1.7,1.9-5.5,0.9-6.8-1.6C173.5,117.4,176.8,114.1,180.6,114.5z"/>
		<path fill="#FCF6F1" d="M111,358.8c0.2-2.7,1.3-4.6,3.3-5.4c1.6-0.6,4.4,0.4,5.6,1.9c1.1,1.5,1.1,3,0,4.3c-1,1.1-2.2,2.2-3.3,3.2
			c-0.3,0.3-0.7,0.6-1.2,0.8c-2.2,0.9-3.2-0.4-3.8-1.7C111.2,361,111.2,359.9,111,358.8z"/>
		<path fill="#FCF6F1" d="M92.8,286c2.7,0,5,2,5.1,4.3c0,0.5-0.1,1.1-0.4,1.6c-0.8,2-2.5,2.9-4.4,3.6c-2.3,0.8-4.5-1-4.7-3.4
			c-0.1-1-0.3-2-0.4-3c-0.1-1.7,0.5-2.6,2.2-2.9C91.3,286.1,92.2,286.1,92.8,286z"/>
		<path fill="#FCF6F1" d="M135.5,390.5c-2.6,0-3.8-1.5-3.7-4.6c0-2.5,2.1-5.3,3.9-5.3c2.8-0.1,5.9,2.7,5.9,5.2
			C141.6,388.1,138.5,390.5,135.5,390.5z"/>
		<path fill="#FCF6F1" d="M316.7,96.6c1.6,0.1,3.1,0.4,3.9,2c0.9,1.8,0.6,3.5-0.6,5.1c-0.6,0.8-1.5,1.7-2.4,2.1
			c-2.8,1.2-5.2-0.5-6.1-3c-1-3,0.3-5.4,3.4-5.9C315.5,96.7,316.1,96.6,316.7,96.6z"/>
		<path fill="#FCF6F1" d="M99,326.9c-0.9-0.2-1.9-0.2-2.7-0.6c-0.9-0.4-1.4-1.1-1.6-2.1c-0.4-3,1.3-5.3,3.1-6c2.6-1,5.5,0.1,6.8,2.6
			c0.3,0.6,0.4,1.4,0.2,2C103.8,325.1,100.9,326.9,99,326.9z"/>
		<path fill="#FCF6F1" d="M195,427.4c2.3,0,3.9,1.2,5,3.1c0.1,0.2,0.2,0.4,0.1,0.6c-0.2,1-0.3,2.1-0.6,3.1c-0.3,0.9-0.4,1.9-1.7,2.1
			c-0.6,0.1-1.1,0.9-1.9,0.6c-1-0.4-2.4-0.6-3-1.3c-1.1-1.3-2.1-2.8-1.7-4.8C191.6,428.6,192.7,427.5,195,427.4z"/>
		<path fill="#FCF6F1" d="M350.5,120.7c-1-1.3-2.1-2.5-2.5-4.3c-0.4-2,0.1-3.4,2-4.1c1-0.4,2.2-0.5,3.3-0.4c1.7,0.2,2.8,1.3,3.2,3.1
			c0.4,1.7-0.2,3.1-1.3,4.3C353.9,120.6,352.4,121.2,350.5,120.7z"/>
		<path fill="#FCF6F1" d="M226.1,443.7c0.1-3,0.8-4,3.2-4.5c1.9-0.4,3.7,0.3,4.5,2c0.1,0.3,0.3,0.5,0.3,0.8c0.5,2.3-1.4,5.3-3.7,5.8
			c-1.7,0.4-3.5-0.7-4.1-2.4C226.2,444.7,226.1,444,226.1,443.7z"/>
		<path fill="#FCF6F1" d="M203.6,469.9c0-2.5,0.8-4.3,1.4-6.2c0.3-0.8,1-1.2,1.9-0.8c1.3,0.5,2.6,0.8,3.8,1.3
			c0.6,0.2,1.2,0.6,1.5,1.1c0.8,1.3,1.4,2.8,0.5,4.2c-0.9,1.4-2.3,1.9-3.9,1.6C207.2,471,205.5,470.4,203.6,469.9z"/>
		<path fill="#FCF6F1" d="M239.3,482.3c-2.6-0.4-4.8-0.4-6.7-1.9c1.5-2.9,2.9-5.7,5-8.8C238.9,475.4,238.3,478.8,239.3,482.3z"/>
		<path fill="#FCF6F1" d="M326.1,479.9c-2.6,0.4-4.8,0.7-7.2,1.1c-0.8-0.4-0.6-1.3-0.5-2c0.3-1,0.7-2,1-3c0.2-0.9,0.3-1.9,0.5-2.9
			c0.1-0.4,0.3-1,0.6-1.1c0.4-0.1,1,0,1.3,0.3c0.4,0.4,0.7,1.1,1,1.6C323.8,475.8,324.9,477.8,326.1,479.9z"/>
		<path fill="#FCF6F1" d="M208.4,56.9c1.4,2.1,2.8,4.2,4.3,6.5c-1.6,0.9-3.2,1-5.1,1.1c-0.3-2.5-0.1-5,0.2-7.4
			C208,57,208.2,57,208.4,56.9z"/>
		<path fill="#FCF6F1" d="M323.3,65.1c2.3-3.4,4.3-6.4,6.2-9.4c0.2,0,0.3,0.1,0.5,0.1c0.3,3.5,0.6,7,0.2,10.8
			C328,66.2,325.9,65.7,323.3,65.1z"/>
	</g>
</g>
</svg>
